G04 MADE WITH FRITZING*
G04 WWW.FRITZING.ORG*
G04 DOUBLE SIDED*
G04 HOLES PLATED*
G04 CONTOUR ON CENTER OF CONTOUR VECTOR*
%ASAXBY*%
%FSLAX23Y23*%
%MOIN*%
%OFA0B0*%
%SFA1.0B1.0*%
%ADD10C,0.049370*%
%ADD11C,0.085000*%
%ADD12C,0.088028*%
%ADD13C,0.088000*%
%ADD14R,0.087986X0.087944*%
%ADD15R,0.057244X0.033622*%
%ADD16R,0.085000X0.085000*%
%LNMASK0*%
G90*
G70*
G54D10*
X1890Y1143D03*
X1734Y399D03*
X2214Y663D03*
X2442Y351D03*
X2610Y987D03*
X474Y1479D03*
X2442Y591D03*
X2442Y651D03*
X2214Y1947D03*
X2298Y1731D03*
X2298Y1923D03*
X2370Y1575D03*
X3498Y1587D03*
X2478Y411D03*
X2382Y2007D03*
X2298Y1647D03*
X2274Y399D03*
X1854Y447D03*
X2310Y735D03*
X2658Y459D03*
X1650Y555D03*
X1794Y1443D03*
X2778Y411D03*
X1050Y1155D03*
X2466Y1635D03*
X2322Y1239D03*
X1602Y615D03*
X1866Y831D03*
X2238Y1755D03*
X2034Y2007D03*
X1974Y2007D03*
X2082Y1839D03*
X2082Y1779D03*
X1914Y2007D03*
X4038Y603D03*
X3750Y1419D03*
X3186Y1119D03*
X2970Y1671D03*
X3174Y1227D03*
X1710Y1947D03*
X1782Y2055D03*
X1878Y2283D03*
G54D11*
X3670Y1534D03*
X3770Y1534D03*
X3870Y1534D03*
X3970Y1534D03*
X4070Y1534D03*
X3570Y1534D03*
X3670Y1534D03*
X3770Y1534D03*
X3870Y1534D03*
X3970Y1534D03*
X4070Y1534D03*
X3570Y1534D03*
G54D12*
X2965Y2174D03*
G54D13*
X2865Y2174D03*
X2765Y2174D03*
X2665Y2174D03*
G54D12*
X1864Y2174D03*
G54D13*
X1764Y2174D03*
X1664Y2174D03*
X1564Y2174D03*
G54D12*
X764Y2174D03*
G54D13*
X664Y2174D03*
X564Y2174D03*
X464Y2174D03*
G54D12*
X764Y1074D03*
G54D13*
X664Y1074D03*
X564Y1074D03*
X464Y1074D03*
G54D12*
X1864Y1074D03*
G54D13*
X1764Y1074D03*
X1664Y1074D03*
X1564Y1074D03*
G54D12*
X2965Y1074D03*
G54D13*
X2865Y1074D03*
X2765Y1074D03*
X2665Y1074D03*
G54D11*
X3521Y1234D03*
X4121Y1234D03*
X3521Y1134D03*
X4121Y1134D03*
X3521Y1034D03*
X4121Y1034D03*
X3521Y934D03*
X4121Y934D03*
X3521Y834D03*
X4121Y834D03*
X3521Y734D03*
X4121Y734D03*
X3521Y634D03*
X4121Y634D03*
X3521Y534D03*
X4121Y534D03*
X3521Y434D03*
X4121Y434D03*
X3521Y334D03*
X4121Y334D03*
X3521Y234D03*
X4121Y234D03*
X3521Y134D03*
X4121Y134D03*
G54D14*
X2665Y2174D03*
X1564Y2174D03*
X464Y2174D03*
X464Y1074D03*
X1564Y1074D03*
X2665Y1074D03*
G54D15*
X2150Y1616D03*
X2150Y1666D03*
X2150Y1716D03*
X2150Y1766D03*
X2150Y1816D03*
X2150Y1866D03*
X2150Y1916D03*
X2150Y1966D03*
X2371Y1966D03*
X2371Y1916D03*
X2371Y1866D03*
X2371Y1816D03*
X2371Y1766D03*
X2371Y1716D03*
X2371Y1666D03*
X2371Y1616D03*
X2150Y383D03*
X2150Y433D03*
X2150Y483D03*
X2150Y533D03*
X2150Y583D03*
X2150Y633D03*
X2150Y683D03*
X2150Y733D03*
X2371Y733D03*
X2371Y683D03*
X2371Y633D03*
X2371Y583D03*
X2371Y533D03*
X2371Y483D03*
X2371Y433D03*
X2371Y383D03*
G54D16*
X3521Y1234D03*
G04 End of Mask0*
M02*