; NON-PLATED HOLES START AT T1
; THROUGH (PLATED) HOLES START AT T100
M48
INCH
T100C0.035000
T101C0.038000
T102C0.038028
T103C0.015748
%
T100
X043757Y010588
X040245Y016682
X037757Y003588
X043757Y003588
X043757Y012588
X037757Y002588
X037757Y009588
X037757Y008588
X037757Y011588
X043757Y006588
X043757Y001588
X043757Y008588
X043757Y007588
X037757Y005588
X043757Y002588
X037757Y006588
X037757Y010588
X043757Y009588
X041245Y016682
X043757Y005588
X037757Y012588
X043757Y011588
X038245Y016682
X039245Y016682
X037757Y001588
X037757Y007588
X043245Y016682
X037757Y004588
X043757Y004588
X042245Y016682
T101
X030938Y011133
X017867Y011133
X006883Y023171
X017867Y023161
X005883Y023171
X028938Y023160
X005883Y011144
X016867Y011133
X029938Y023160
X016867Y023161
X004882Y023171
X004882Y011144
X006883Y011144
X018868Y023161
X028938Y011133
X018868Y011133
X029938Y011133
X030938Y023160
T102
X019868Y011133
X031938Y011133
X007883Y011144
X031938Y023160
X019868Y023161
X007883Y023172
T103
X007620Y016343
X024660Y018383
X026100Y016703
X020220Y020783
X024660Y006383
X020220Y021743
X032220Y016703
X033060Y011423
X020460Y008063
X031260Y008063
X019740Y004943
X024660Y006983
X024660Y019223
X024660Y005543
X024420Y009503
X024660Y019823
X030780Y004583
X019740Y009863
X022740Y004343
X042660Y006503
X024660Y004823
X024900Y007943
X017340Y017183
X016620Y012263
X022140Y022223
X005940Y004703
X024540Y015743
X021060Y018623
X024540Y016343
X023940Y015983
X024180Y016943
X025260Y008543
X020460Y013583
X025740Y005903
X024900Y021623
X026580Y005183
X028260Y022943
X025500Y016703
T00
M30
