G04 MADE WITH FRITZING*
G04 WWW.FRITZING.ORG*
G04 DOUBLE SIDED*
G04 HOLES PLATED*
G04 CONTOUR ON CENTER OF CONTOUR VECTOR*
%ASAXBY*%
%FSLAX23Y23*%
%MOIN*%
%OFA0B0*%
%SFA1.0B1.0*%
%ADD10C,0.039370*%
%ADD11C,0.075000*%
%ADD12C,0.078027*%
%ADD13C,0.078000*%
%ADD14R,0.077986X0.077944*%
%ADD15R,0.047244X0.023622*%
%ADD16R,0.075000X0.075000*%
%ADD17C,0.012000*%
%LNCOPPER0*%
G90*
G70*
G54D10*
X1890Y1143D03*
X1734Y399D03*
X2214Y663D03*
X2442Y351D03*
X2610Y987D03*
X474Y1479D03*
X2442Y591D03*
X2442Y651D03*
X2214Y1947D03*
X2298Y1731D03*
X2298Y1923D03*
X2370Y1575D03*
X3498Y1587D03*
X2478Y411D03*
X2382Y2007D03*
X2298Y1647D03*
X2274Y399D03*
X1854Y447D03*
X2310Y735D03*
X2658Y459D03*
X1650Y555D03*
X1794Y1443D03*
X2778Y411D03*
X1050Y1155D03*
X2466Y1635D03*
X2322Y1239D03*
X1602Y615D03*
X1866Y831D03*
X2238Y1755D03*
X2034Y2007D03*
X1974Y2007D03*
X2082Y1839D03*
X2082Y1779D03*
X1914Y2007D03*
X4038Y603D03*
X3750Y1419D03*
X3186Y1119D03*
X2970Y1671D03*
X3174Y1227D03*
X1710Y1947D03*
X1782Y2055D03*
X1878Y2283D03*
G54D11*
X3670Y1534D03*
X3770Y1534D03*
X3870Y1534D03*
X3970Y1534D03*
X4070Y1534D03*
X3570Y1534D03*
X3670Y1534D03*
X3770Y1534D03*
X3870Y1534D03*
X3970Y1534D03*
X4070Y1534D03*
X3570Y1534D03*
G54D12*
X2965Y2174D03*
G54D13*
X2865Y2174D03*
X2765Y2174D03*
X2665Y2174D03*
G54D12*
X1864Y2174D03*
G54D13*
X1764Y2174D03*
X1664Y2174D03*
X1564Y2174D03*
G54D12*
X764Y2174D03*
G54D13*
X664Y2174D03*
X564Y2174D03*
X464Y2174D03*
G54D12*
X764Y1074D03*
G54D13*
X664Y1074D03*
X564Y1074D03*
X464Y1074D03*
G54D12*
X1864Y1074D03*
G54D13*
X1764Y1074D03*
X1664Y1074D03*
X1564Y1074D03*
G54D12*
X2965Y1074D03*
G54D13*
X2865Y1074D03*
X2765Y1074D03*
X2665Y1074D03*
G54D11*
X3521Y1234D03*
X4121Y1234D03*
X3521Y1134D03*
X4121Y1134D03*
X3521Y1034D03*
X4121Y1034D03*
X3521Y934D03*
X4121Y934D03*
X3521Y834D03*
X4121Y834D03*
X3521Y734D03*
X4121Y734D03*
X3521Y634D03*
X4121Y634D03*
X3521Y534D03*
X4121Y534D03*
X3521Y434D03*
X4121Y434D03*
X3521Y334D03*
X4121Y334D03*
X3521Y234D03*
X4121Y234D03*
X3521Y134D03*
X4121Y134D03*
G54D14*
X2665Y2174D03*
X1564Y2174D03*
X464Y2174D03*
X464Y1074D03*
X1564Y1074D03*
X2665Y1074D03*
G54D15*
X2150Y1616D03*
X2150Y1666D03*
X2150Y1716D03*
X2150Y1766D03*
X2150Y1816D03*
X2150Y1866D03*
X2150Y1916D03*
X2150Y1966D03*
X2371Y1966D03*
X2371Y1916D03*
X2371Y1866D03*
X2371Y1816D03*
X2371Y1766D03*
X2371Y1716D03*
X2371Y1666D03*
X2371Y1616D03*
X2150Y383D03*
X2150Y433D03*
X2150Y483D03*
X2150Y533D03*
X2150Y583D03*
X2150Y633D03*
X2150Y683D03*
X2150Y733D03*
X2371Y733D03*
X2371Y683D03*
X2371Y633D03*
X2371Y583D03*
X2371Y533D03*
X2371Y483D03*
X2371Y433D03*
X2371Y383D03*
G54D16*
X3521Y1234D03*
G54D17*
X2147Y1610D02*
X1896Y1155D01*
D02*
X2765Y2150D02*
X2765Y1098D01*
D02*
X1664Y2150D02*
X1664Y1098D01*
D02*
X2132Y383D02*
X1747Y398D01*
D02*
X2353Y486D02*
X2298Y495D01*
X2298Y495D02*
X2298Y555D01*
X2298Y555D02*
X2214Y627D01*
X2214Y627D02*
X2214Y649D01*
D02*
X2162Y576D02*
X2274Y519D01*
X2274Y519D02*
X2274Y459D01*
X2274Y459D02*
X2322Y459D01*
X2322Y459D02*
X2322Y351D01*
X2322Y351D02*
X2429Y351D01*
D02*
X2388Y439D02*
X2442Y459D01*
X2442Y459D02*
X2442Y507D01*
X2442Y507D02*
X2610Y663D01*
X2610Y663D02*
X2610Y973D01*
D02*
X2355Y539D02*
X2346Y543D01*
X2346Y543D02*
X2256Y651D01*
X2256Y651D02*
X2250Y651D01*
X2250Y651D02*
X2250Y711D01*
X2250Y711D02*
X2190Y783D01*
X2190Y783D02*
X1242Y783D01*
X1242Y783D02*
X484Y1470D01*
D02*
X2389Y585D02*
X2429Y589D01*
D02*
X2389Y637D02*
X2429Y648D01*
D02*
X2389Y1860D02*
X2418Y1851D01*
X2418Y1851D02*
X2442Y664D01*
D02*
X2353Y1769D02*
X2298Y1779D01*
X2298Y1779D02*
X2220Y1935D01*
D02*
X2353Y1720D02*
X2311Y1728D01*
D02*
X2358Y1822D02*
X2322Y1839D01*
X2322Y1839D02*
X2302Y1910D01*
D02*
X2371Y1610D02*
X2370Y1588D01*
D02*
X3511Y1587D02*
X4026Y1587D01*
X4026Y1587D02*
X4055Y1552D01*
D02*
X2389Y387D02*
X2465Y407D01*
D02*
X2373Y1972D02*
X2378Y1994D01*
D02*
X2302Y1634D02*
X2334Y1539D01*
X2334Y1539D02*
X2370Y1539D01*
X2370Y1539D02*
X2370Y747D01*
X2370Y747D02*
X2370Y739D01*
D02*
X2274Y385D02*
X2274Y351D01*
X2274Y351D02*
X2106Y351D01*
X2106Y351D02*
X2106Y363D01*
X2106Y363D02*
X1698Y363D01*
X1698Y363D02*
X1698Y447D01*
X1698Y447D02*
X1841Y447D01*
D02*
X2323Y734D02*
X2353Y733D01*
D02*
X2132Y483D02*
X2130Y483D01*
X2130Y483D02*
X1674Y483D01*
X1674Y483D02*
X1674Y339D01*
X1674Y339D02*
X2082Y339D01*
X2082Y339D02*
X2082Y327D01*
X2082Y327D02*
X2406Y327D01*
X2406Y327D02*
X2406Y315D01*
X2406Y315D02*
X2478Y315D01*
X2478Y315D02*
X2514Y363D01*
X2514Y363D02*
X2514Y447D01*
X2514Y447D02*
X2645Y458D01*
D02*
X2136Y1960D02*
X2106Y1947D01*
X2106Y1947D02*
X2106Y1887D01*
X2106Y1887D02*
X2137Y1872D01*
D02*
X2645Y2159D02*
X2634Y2151D01*
X2634Y2151D02*
X2298Y2031D01*
X2298Y2031D02*
X2298Y1983D01*
X2298Y1983D02*
X2178Y1983D01*
X2178Y1983D02*
X2161Y1972D01*
D02*
X1583Y2190D02*
X1638Y2235D01*
X1638Y2235D02*
X1914Y2235D01*
X1914Y2235D02*
X1926Y2211D01*
X1926Y2211D02*
X1908Y2127D01*
X1908Y2127D02*
X1902Y2115D01*
X1902Y2115D02*
X1686Y2115D01*
X1686Y2115D02*
X1782Y1965D01*
X1782Y1965D02*
X2132Y1966D01*
D02*
X2138Y726D02*
X2106Y711D01*
X2106Y711D02*
X2106Y687D01*
X2106Y687D02*
X1938Y519D01*
X1938Y519D02*
X1650Y519D01*
X1650Y519D02*
X1650Y315D01*
X1650Y315D02*
X2058Y315D01*
X2058Y315D02*
X2058Y303D01*
X2058Y303D02*
X2382Y303D01*
X2382Y303D02*
X2382Y291D01*
X2382Y291D02*
X2538Y291D01*
X2538Y291D02*
X2694Y411D01*
X2694Y411D02*
X2694Y495D01*
X2694Y495D02*
X2666Y1049D01*
D02*
X2136Y639D02*
X2082Y663D01*
X2082Y663D02*
X2106Y687D01*
D02*
X1650Y541D02*
X1650Y519D01*
D02*
X1794Y1456D02*
X1782Y1965D01*
D02*
X2765Y411D02*
X2694Y411D01*
D02*
X1063Y1153D02*
X1540Y1078D01*
D02*
X481Y2157D02*
X774Y1875D01*
D02*
X774Y1875D02*
X1045Y1167D01*
D02*
X2382Y1910D02*
X2442Y1875D01*
X2442Y1875D02*
X2465Y1648D01*
D02*
X2322Y1225D02*
X2322Y771D01*
X2322Y771D02*
X2274Y771D01*
X2274Y771D02*
X2274Y699D01*
X2274Y699D02*
X2353Y686D01*
D02*
X3498Y235D02*
X1626Y291D01*
X1626Y291D02*
X1603Y601D01*
D02*
X1879Y830D02*
X2238Y819D01*
X2238Y819D02*
X2286Y771D01*
X2286Y771D02*
X2322Y771D01*
D02*
X2366Y1672D02*
X2358Y1683D01*
X2358Y1683D02*
X2262Y1683D01*
X2262Y1683D02*
X2242Y1742D01*
D02*
X2047Y2007D02*
X2214Y2007D01*
X2214Y2007D02*
X2310Y2175D01*
X2310Y2175D02*
X2610Y2175D01*
X2610Y2175D02*
X2610Y2235D01*
X2610Y2235D02*
X2922Y2235D01*
X2922Y2235D02*
X2950Y2194D01*
D02*
X2948Y1092D02*
X2934Y1107D01*
X2934Y1107D02*
X2790Y1179D01*
X2790Y1179D02*
X2790Y2115D01*
X2790Y2115D02*
X2994Y2115D01*
X2994Y2115D02*
X2994Y2127D01*
X2994Y2127D02*
X3018Y2127D01*
X3018Y2127D02*
X3018Y2223D01*
X3018Y2223D02*
X2946Y2259D01*
D02*
X2946Y2259D02*
X2586Y2259D01*
D02*
X2586Y2259D02*
X2586Y2235D01*
X2586Y2235D02*
X2550Y2199D01*
X2550Y2199D02*
X2286Y2199D01*
X2286Y2199D02*
X2190Y2043D01*
X2190Y2043D02*
X1998Y2043D01*
X1998Y2043D02*
X1998Y2007D01*
X1998Y2007D02*
X1987Y2007D01*
D02*
X2095Y1835D02*
X2132Y1822D01*
D02*
X2132Y1720D02*
X2082Y1731D01*
X2082Y1731D02*
X2082Y1765D01*
D02*
X1921Y2018D02*
X1938Y2043D01*
X1938Y2043D02*
X2262Y2223D01*
X2262Y2223D02*
X2562Y2283D01*
X2562Y2283D02*
X3018Y2283D01*
X3018Y2283D02*
X3042Y2259D01*
D02*
X3042Y2259D02*
X3042Y2103D01*
X3042Y2103D02*
X3018Y2103D01*
X3018Y2103D02*
X2814Y1215D01*
X2814Y1215D02*
X3498Y1137D01*
D02*
X4104Y149D02*
X4038Y207D01*
X4038Y207D02*
X4038Y589D01*
D02*
X3853Y1518D02*
X3760Y1428D01*
D02*
X2883Y1057D02*
X2934Y1011D01*
D02*
X2934Y1011D02*
X3006Y1011D01*
X3006Y1011D02*
X3174Y1112D01*
D02*
X2976Y1659D02*
X3168Y1239D01*
D02*
X1763Y1098D02*
X1711Y1933D01*
D02*
X1795Y2058D02*
X1926Y2091D01*
X1926Y2091D02*
X1950Y2127D01*
X1950Y2127D02*
X1950Y2247D01*
X1950Y2247D02*
X1890Y2277D01*
D02*
X646Y1091D02*
X438Y1287D01*
X438Y1287D02*
X438Y1515D01*
X438Y1515D02*
X858Y1515D01*
D02*
X858Y1515D02*
X858Y1227D01*
D02*
X858Y1227D02*
X1062Y1023D01*
X1062Y1023D02*
X1710Y1011D01*
X1710Y1011D02*
X1748Y1055D01*
D02*
X645Y2190D02*
X594Y2235D01*
X594Y2235D02*
X402Y2235D01*
X402Y2235D02*
X402Y2115D01*
X402Y2115D02*
X858Y1515D01*
G04 End of Copper0*
M02*