G04 MADE WITH FRITZING*
G04 WWW.FRITZING.ORG*
G04 DOUBLE SIDED*
G04 HOLES PLATED*
G04 CONTOUR ON CENTER OF CONTOUR VECTOR*
%ASAXBY*%
%FSLAX23Y23*%
%MOIN*%
%OFA0B0*%
%SFA1.0B1.0*%
%ADD10C,0.075000*%
%ADD11C,0.078027*%
%ADD12C,0.078000*%
%ADD13C,0.039370*%
%ADD14R,0.077986X0.077944*%
%ADD15R,0.047244X0.023622*%
%ADD16R,0.075000X0.075000*%
%ADD17C,0.012000*%
%LNCOPPER0*%
G90*
G70*
G54D10*
X3925Y1668D03*
X4025Y1668D03*
X4125Y1668D03*
X4225Y1668D03*
X4325Y1668D03*
X3825Y1668D03*
X3925Y1668D03*
X4025Y1668D03*
X4125Y1668D03*
X4225Y1668D03*
X4325Y1668D03*
X3825Y1668D03*
G54D11*
X3194Y2316D03*
G54D12*
X3094Y2316D03*
X2994Y2316D03*
X2894Y2316D03*
G54D11*
X1987Y2316D03*
G54D12*
X1887Y2316D03*
X1787Y2316D03*
X1687Y2316D03*
G54D11*
X788Y2317D03*
G54D12*
X688Y2317D03*
X588Y2317D03*
X488Y2317D03*
G54D11*
X788Y1114D03*
G54D12*
X688Y1114D03*
X588Y1114D03*
X488Y1114D03*
G54D11*
X1987Y1113D03*
G54D12*
X1887Y1113D03*
X1787Y1113D03*
X1687Y1113D03*
G54D11*
X3194Y1113D03*
G54D12*
X3094Y1113D03*
X2994Y1113D03*
X2894Y1113D03*
G54D10*
X3776Y1259D03*
X4376Y1259D03*
X3776Y1159D03*
X4376Y1159D03*
X3776Y1059D03*
X4376Y1059D03*
X3776Y959D03*
X4376Y959D03*
X3776Y859D03*
X4376Y859D03*
X3776Y759D03*
X4376Y759D03*
X3776Y659D03*
X4376Y659D03*
X3776Y559D03*
X4376Y559D03*
X3776Y459D03*
X4376Y459D03*
X3776Y359D03*
X4376Y359D03*
X3776Y259D03*
X4376Y259D03*
X3776Y159D03*
X4376Y159D03*
G54D13*
X1974Y494D03*
X2466Y482D03*
X2466Y638D03*
X2466Y698D03*
X2466Y554D03*
X2574Y590D03*
X2466Y1922D03*
X2466Y1982D03*
X1734Y1718D03*
X1662Y1226D03*
X2466Y1838D03*
X2418Y1694D03*
X2454Y1634D03*
X2490Y794D03*
X2394Y1598D03*
X2658Y518D03*
X594Y470D03*
X2550Y1670D03*
X2454Y1574D03*
X2274Y434D03*
X2526Y854D03*
X2442Y950D03*
X2610Y1670D03*
X2106Y1862D03*
X2046Y1358D03*
X2046Y806D03*
X1974Y986D03*
X2826Y2294D03*
X3222Y1670D03*
X3078Y458D03*
X3126Y806D03*
X762Y1634D03*
X3306Y1142D03*
X2490Y2162D03*
X2214Y2222D03*
X2022Y2174D03*
X2022Y2078D03*
X4266Y650D03*
G54D14*
X2894Y2316D03*
X1687Y2316D03*
X488Y2317D03*
X488Y1114D03*
X1687Y1113D03*
X2894Y1113D03*
G54D15*
X2175Y1750D03*
X2175Y1800D03*
X2175Y1850D03*
X2175Y1900D03*
X2175Y1950D03*
X2175Y2000D03*
X2175Y2050D03*
X2175Y2100D03*
X2395Y2100D03*
X2395Y2050D03*
X2395Y2000D03*
X2395Y1950D03*
X2395Y1900D03*
X2395Y1850D03*
X2395Y1800D03*
X2395Y1750D03*
X2175Y517D03*
X2175Y567D03*
X2175Y617D03*
X2175Y667D03*
X2175Y717D03*
X2175Y767D03*
X2175Y817D03*
X2175Y867D03*
X2395Y867D03*
X2395Y817D03*
X2395Y767D03*
X2395Y717D03*
X2395Y667D03*
X2395Y617D03*
X2395Y567D03*
X2395Y517D03*
G54D16*
X3776Y1259D03*
G54D17*
X2168Y1744D02*
X1998Y1586D01*
X1998Y1586D02*
X1987Y1138D01*
D02*
X2157Y515D02*
X1987Y496D01*
D02*
X588Y2293D02*
X588Y1139D01*
D02*
X1787Y2292D02*
X1787Y1138D01*
D02*
X2994Y2291D02*
X2994Y1138D01*
D02*
X2193Y715D02*
X2346Y698D01*
X2346Y698D02*
X2346Y482D01*
X2346Y482D02*
X2453Y482D01*
D02*
X2414Y622D02*
X2453Y634D01*
D02*
X2409Y673D02*
X2454Y693D01*
D02*
X2414Y564D02*
X2453Y557D01*
D02*
X2378Y1994D02*
X2346Y1982D01*
X2346Y1982D02*
X2346Y782D01*
X2346Y782D02*
X2377Y772D01*
D02*
X2565Y600D02*
X2502Y662D01*
X2502Y662D02*
X2502Y746D01*
X2502Y746D02*
X2406Y746D01*
X2406Y746D02*
X2399Y760D01*
D02*
X2414Y1906D02*
X2453Y1918D01*
D02*
X2409Y1956D02*
X2454Y1977D01*
D02*
X1732Y1705D02*
X1664Y1240D01*
D02*
X2414Y1847D02*
X2453Y1840D01*
D02*
X2406Y823D02*
X2418Y830D01*
X2418Y830D02*
X2496Y914D01*
X2496Y914D02*
X2502Y914D01*
X2502Y914D02*
X2502Y2018D01*
X2502Y2018D02*
X2418Y2042D01*
X2418Y2042D02*
X2414Y2044D01*
D02*
X3759Y275D02*
X3126Y902D01*
X3126Y902D02*
X2496Y914D01*
D02*
X2428Y1704D02*
X2442Y1718D01*
X2442Y1718D02*
X2442Y1778D01*
X2442Y1778D02*
X2409Y1794D01*
D02*
X2391Y1744D02*
X2382Y1730D01*
X2382Y1730D02*
X2382Y1658D01*
X2382Y1658D02*
X2441Y1639D01*
D02*
X2414Y518D02*
X2418Y518D01*
X2418Y518D02*
X2502Y518D01*
X2502Y518D02*
X2502Y542D01*
X2502Y542D02*
X2610Y542D01*
X2610Y542D02*
X2610Y626D01*
X2610Y626D02*
X2526Y686D01*
X2526Y686D02*
X2526Y770D01*
X2526Y770D02*
X2501Y787D01*
D02*
X2391Y1611D02*
X2382Y1658D01*
D02*
X2187Y610D02*
X2202Y602D01*
X2202Y602D02*
X2322Y458D01*
X2322Y458D02*
X2430Y446D01*
X2430Y446D02*
X2502Y446D01*
X2502Y446D02*
X2502Y482D01*
X2502Y482D02*
X2526Y482D01*
X2526Y482D02*
X2526Y506D01*
X2526Y506D02*
X2645Y517D01*
D02*
X2377Y720D02*
X2214Y746D01*
X2214Y746D02*
X2214Y902D01*
X2214Y902D02*
X2130Y902D01*
X2130Y902D02*
X607Y474D01*
D02*
X2405Y2094D02*
X2466Y2054D01*
X2466Y2054D02*
X2526Y2054D01*
X2526Y2054D02*
X2549Y1684D01*
D02*
X2453Y1561D02*
X2396Y873D01*
D02*
X2274Y421D02*
X2274Y422D01*
X2274Y422D02*
X2526Y422D01*
X2526Y422D02*
X2694Y482D01*
X2694Y482D02*
X2694Y578D01*
X2694Y578D02*
X2533Y843D01*
D02*
X2435Y939D02*
X2399Y873D01*
D02*
X2602Y1681D02*
X2574Y1718D01*
X2574Y1718D02*
X2550Y2006D01*
X2550Y2006D02*
X2550Y2090D01*
X2550Y2090D02*
X2442Y2114D01*
X2442Y2114D02*
X2442Y2126D01*
X2442Y2126D02*
X2346Y2126D01*
X2346Y2126D02*
X2214Y1970D01*
X2214Y1970D02*
X2187Y1956D01*
D02*
X3753Y1256D02*
X3174Y1190D01*
X3174Y1190D02*
X3112Y1130D01*
D02*
X3096Y2292D02*
X3174Y1190D01*
D02*
X1887Y1138D02*
X1887Y2292D01*
D02*
X688Y1139D02*
X688Y2293D01*
D02*
X2188Y2006D02*
X2214Y2018D01*
X2214Y2018D02*
X2214Y2078D01*
X2214Y2078D02*
X2186Y2094D01*
D02*
X1705Y2332D02*
X1758Y2378D01*
X1758Y2378D02*
X2034Y2378D01*
X2034Y2378D02*
X2040Y2282D01*
X2040Y2282D02*
X1914Y2126D01*
X1914Y2126D02*
X2154Y2114D01*
X2154Y2114D02*
X2166Y2106D01*
D02*
X2119Y1862D02*
X2130Y1862D01*
X2130Y1862D02*
X2130Y1982D01*
X2130Y1982D02*
X2159Y1994D01*
D02*
X1696Y1091D02*
X1710Y1058D01*
X1710Y1058D02*
X2022Y1058D01*
X2022Y1058D02*
X2046Y1082D01*
X2046Y1082D02*
X2046Y1345D01*
D02*
X2162Y860D02*
X2058Y812D01*
D02*
X1981Y997D02*
X2022Y1058D01*
D02*
X2157Y773D02*
X2130Y782D01*
X2130Y782D02*
X2130Y854D01*
X2130Y854D02*
X2157Y862D01*
D02*
X2813Y2294D02*
X2694Y2294D01*
X2694Y2294D02*
X2192Y2106D01*
D02*
X3223Y1684D02*
X3252Y2342D01*
X3252Y2342D02*
X3222Y2378D01*
X3222Y2378D02*
X2922Y2378D01*
X2922Y2378D02*
X2904Y2338D01*
D02*
X3802Y1668D02*
X3235Y1670D01*
D02*
X3080Y472D02*
X3124Y793D01*
D02*
X774Y1628D02*
X1665Y1125D01*
D02*
X3298Y1131D02*
X3246Y1058D01*
X3246Y1058D02*
X2838Y1058D01*
X2838Y1058D02*
X2574Y2126D01*
X2574Y2126D02*
X2502Y2157D01*
D02*
X2201Y2219D02*
X2035Y2178D01*
D02*
X2025Y2065D02*
X2070Y1826D01*
X2070Y1826D02*
X2166Y1826D01*
X2166Y1826D02*
X2166Y1838D01*
X2166Y1838D02*
X2170Y1844D01*
D02*
X4141Y1653D02*
X4314Y1490D01*
X4314Y1490D02*
X4314Y338D01*
X4314Y338D02*
X4362Y277D01*
D02*
X4358Y174D02*
X4266Y254D01*
X4266Y254D02*
X4266Y637D01*
G04 End of Copper0*
M02*