G04 MADE WITH FRITZING*
G04 WWW.FRITZING.ORG*
G04 DOUBLE SIDED*
G04 HOLES PLATED*
G04 CONTOUR ON CENTER OF CONTOUR VECTOR*
%ASAXBY*%
%FSLAX23Y23*%
%MOIN*%
%OFA0B0*%
%SFA1.0B1.0*%
%ADD10C,0.085000*%
%ADD11C,0.088028*%
%ADD12C,0.088000*%
%ADD13C,0.049370*%
%ADD14R,0.087986X0.087944*%
%ADD15R,0.037122X0.067023*%
%ADD16R,0.038557X0.067056*%
%ADD17R,0.085000X0.085000*%
%LNMASK1*%
G90*
G70*
G54D10*
X3925Y1668D03*
X4025Y1668D03*
X4125Y1668D03*
X4225Y1668D03*
X4325Y1668D03*
X3825Y1668D03*
X3925Y1668D03*
X4025Y1668D03*
X4125Y1668D03*
X4225Y1668D03*
X4325Y1668D03*
X3825Y1668D03*
G54D11*
X3194Y2316D03*
G54D12*
X3094Y2316D03*
X2994Y2316D03*
X2894Y2316D03*
G54D11*
X1987Y2316D03*
G54D12*
X1887Y2316D03*
X1787Y2316D03*
X1687Y2316D03*
G54D11*
X788Y2317D03*
G54D12*
X688Y2317D03*
X588Y2317D03*
X488Y2317D03*
G54D11*
X788Y1114D03*
G54D12*
X688Y1114D03*
X588Y1114D03*
X488Y1114D03*
G54D11*
X1987Y1113D03*
G54D12*
X1887Y1113D03*
X1787Y1113D03*
X1687Y1113D03*
G54D11*
X3194Y1113D03*
G54D12*
X3094Y1113D03*
X2994Y1113D03*
X2894Y1113D03*
G54D10*
X3776Y1259D03*
X4376Y1259D03*
X3776Y1159D03*
X4376Y1159D03*
X3776Y1059D03*
X4376Y1059D03*
X3776Y959D03*
X4376Y959D03*
X3776Y859D03*
X4376Y859D03*
X3776Y759D03*
X4376Y759D03*
X3776Y659D03*
X4376Y659D03*
X3776Y559D03*
X4376Y559D03*
X3776Y459D03*
X4376Y459D03*
X3776Y359D03*
X4376Y359D03*
X3776Y259D03*
X4376Y259D03*
X3776Y159D03*
X4376Y159D03*
G54D13*
X1974Y494D03*
X2466Y554D03*
X2466Y482D03*
X2418Y1694D03*
X594Y470D03*
X2658Y518D03*
X2466Y1838D03*
X2022Y2078D03*
X2022Y2174D03*
X2214Y2222D03*
X2490Y2162D03*
X3306Y1142D03*
X1662Y1226D03*
X1734Y1718D03*
X2466Y1982D03*
X2610Y1670D03*
X2466Y1922D03*
X4266Y650D03*
X2466Y638D03*
X2574Y590D03*
X2466Y698D03*
X762Y1634D03*
X3126Y806D03*
X3078Y458D03*
X3222Y1670D03*
X2826Y2294D03*
X1974Y986D03*
X2046Y806D03*
X2046Y1358D03*
X2106Y1862D03*
X2394Y1598D03*
X2490Y794D03*
X2454Y1634D03*
X2442Y950D03*
X2526Y854D03*
X2274Y434D03*
X2454Y1574D03*
X2550Y1670D03*
G54D14*
X2894Y2316D03*
X1687Y2316D03*
X488Y2317D03*
X488Y1114D03*
X1687Y1113D03*
X2894Y1113D03*
G54D15*
X716Y442D03*
G54D16*
X541Y441D03*
G54D15*
X1915Y441D03*
G54D16*
X1740Y440D03*
G54D15*
X3122Y441D03*
G54D16*
X2947Y440D03*
G54D15*
X716Y1645D03*
G54D16*
X541Y1644D03*
G54D15*
X1915Y1643D03*
G54D16*
X1740Y1642D03*
G54D15*
X3122Y1643D03*
G54D16*
X2947Y1642D03*
G54D17*
X3776Y1259D03*
G04 End of Mask1*
M02*