; NON-PLATED HOLES START AT T1
; THROUGH (PLATED) HOLES START AT T100
M48
INCH
T100C0.035000
T101C0.038000
T102C0.038028
T103C0.015748
%
T100
X041208Y001339
X041208Y006339
X041208Y005339
X035208Y006339
X041208Y009339
X041208Y004339
X041208Y012339
X041208Y008339
X041208Y007339
X035208Y009339
X035208Y003339
X035208Y008339
X041208Y003339
X035208Y010339
X041208Y002339
X035208Y001339
X041208Y010339
X037696Y015343
X035208Y011339
X035696Y015343
X039696Y015343
X035208Y004339
X035208Y012339
X038696Y015343
X040696Y015343
X035208Y002339
X035208Y005339
X041208Y011339
X035208Y007339
X036696Y015343
T101
X004637Y021740
X015641Y021740
X006637Y010736
X027645Y010736
X005637Y021740
X028645Y010736
X016641Y010736
X004637Y010736
X028645Y021740
X026645Y021740
X017641Y010736
X026645Y010736
X017641Y021740
X015641Y010736
X005637Y010736
X027645Y021740
X006637Y021740
X016641Y021740
T102
X029645Y010737
X007637Y010737
X018641Y010737
X029645Y021740
X018641Y021740
X007637Y021740
T103
X017100Y019468
X020820Y017788
X019140Y020068
X027780Y004108
X004739Y014788
X017340Y003988
X022740Y003988
X010500Y011548
X029700Y016708
X020340Y020068
X026100Y009868
X023100Y007348
X018660Y008308
X024420Y006508
X034980Y015868
X026580Y004588
X018900Y011428
X019740Y020068
X022140Y019468
X022380Y017548
X016500Y005548
X016020Y006148
X024420Y005908
X022980Y017308
X022980Y016468
X037500Y014188
X017820Y020548
X024420Y003508
X022140Y006628
X018780Y022828
X031740Y012268
X040380Y006028
X024660Y016348
X017940Y014428
X023700Y015748
X031860Y011188
X022980Y019228
X023820Y020068
X020820Y018388
X023220Y012388
X018540Y004468
X024780Y004108
T00
M30
