<?xml version='1.0' encoding='UTF-8' standalone='no'?>
<!-- Created with Fritzing (http://www.fritzing.org/) -->
<svg xmlns="http://www.w3.org/2000/svg" x="0in" width="4.53937in" version="1.2" baseProfile="tiny" y="0in" viewBox="0 0 326.835 178.583" height="2.48031in" xmlns:svg="http://www.w3.org/2000/svg" >
 <g transform="matrix(-1, 0, 0, 1, 326.835, 0)">
  <g partID="177850">
   <g id="board" >
    <rect stroke-width="0.5" x="0.288" id="boardoutline" width="326.259" y="0.288" fill-opacity="0.5" height="178.007" fill="none" stroke="black" />
   </g>
  </g>
  <g partID="403382">
   <g transform="translate(268.204,62.5643)">
    <g transform="matrix(0,-1,1,0,0,0)">
     <g id="copper1" flipped="1">
      <g transform="matrix(-1, 0, 0, 1, 64.3037, 0)">
       <g>
        <g>
         <g gorn="0.4.0">
          <g stroke-width="1.44" id="0" cx="60.205" r="1.98" fill="none" stroke="black" cy="14.3646" gorn="0.4.0.0"/>
          <g stroke-width="1.44" id="1" cx="60.205" r="1.98" fill="none" stroke="black" cy="21.5646" gorn="0.4.0.1"/>
          <g stroke-width="1.44" id="2" cx="60.205" r="1.98" fill="none" stroke="black" cy="28.7646" gorn="0.4.0.2"/>
          <g stroke-width="1.44" id="3" cx="60.205" r="1.98" fill="none" stroke="black" cy="35.9646" gorn="0.4.0.3"/>
          <g stroke-width="1.44" id="4" cx="60.205" r="1.98" fill="none" stroke="black" cy="43.1646" gorn="0.4.0.4"/>
          <g stroke-width="1.44" id="5" cx="60.205" r="1.98" fill="none" stroke="black" cy="7.16457" gorn="0.4.0.5"/>
         </g>
         <g gorn="0.4">
          <g id="copper0" gorn="0.4.0">
           <g stroke-width="1.44" id="6" cx="60.205" r="1.98" fill="none" stroke="black" cy="14.3646" gorn="0.4.0.0"/>
           <g stroke-width="1.44" id="7" cx="60.205" r="1.98" fill="none" stroke="black" cy="21.5646" gorn="0.4.0.1"/>
           <g stroke-width="1.44" id="8" cx="60.205" r="1.98" fill="none" stroke="black" cy="28.7646" gorn="0.4.0.2"/>
           <g stroke-width="1.44" id="9" cx="60.205" r="1.98" fill="none" stroke="black" cy="35.9646" gorn="0.4.0.3"/>
           <g stroke-width="1.44" id="10" cx="60.205" r="1.98" fill="none" stroke="black" cy="43.1646" gorn="0.4.0.4"/>
           <g stroke-width="1.44" id="11" cx="60.205" r="1.98" fill="none" stroke="black" cy="7.16457" gorn="0.4.0.5"/>
          </g>
         </g>
        </g>
       </g>
      </g>
     </g>
    </g>
   </g>
  </g>
  <g partID="334331">
   <g transform="translate(180.212,5.43653)">
    <g id="copper1"  gorn="0.4">
     <g id="copper0"  gorn="0.4.0">
      <g stroke-width="1.43999" x="26.0559" width="4.17499" id="12" y="4.30299" height="4.17199" fill="none" stroke="black"  gorn="0.4.0.0"/>
      <g stroke-width="1.43999" id="13" r="2.08899" cx="49.7478" fill="none" stroke="black"  cy="6.38898" gorn="0.4.0.1"/>
      <g stroke-width="1.43999" id="14" r="2.08799" cx="42.5478" fill="none" stroke="black"  cy="6.38998" gorn="0.4.0.2"/>
      <g stroke-width="1.43999" id="15" r="2.08799" cx="35.3459" fill="none" stroke="black"  cy="6.38998" gorn="0.4.0.3"/>
      <g stroke-width="1.43999" id="16" r="2.08799" cx="28.1429" fill="none" stroke="black"  cy="6.38998" gorn="0.4.0.4"/>
     </g>
    </g>
   </g>
  </g>
  <g partID="341101">
   <g transform="translate(93.3028,5.4311)">
    <g id="copper1"  gorn="0.4">
     <g id="copper0"  gorn="0.4.0">
      <g stroke-width="1.43999" x="26.0559" width="4.17499" id="17" y="4.30299" height="4.17199" fill="none" stroke="black"  gorn="0.4.0.0"/>
      <g stroke-width="1.43999" id="18" r="2.08899" cx="49.7478" fill="none" stroke="black"  cy="6.38898" gorn="0.4.0.1"/>
      <g stroke-width="1.43999" id="19" r="2.08799" cx="42.5478" fill="none" stroke="black"  cy="6.38998" gorn="0.4.0.2"/>
      <g stroke-width="1.43999" id="20" r="2.08799" cx="35.3459" fill="none" stroke="black"  cy="6.38998" gorn="0.4.0.3"/>
      <g stroke-width="1.43999" id="21" r="2.08799" cx="28.1429" fill="none" stroke="black"  cy="6.38998" gorn="0.4.0.4"/>
     </g>
    </g>
   </g>
  </g>
  <g partID="341131">
   <g transform="translate(7.01456,5.35398)">
    <g id="copper1"  gorn="0.4">
     <g id="copper0"  gorn="0.4.0">
      <g stroke-width="1.43999" x="26.0559" width="4.17499" id="22" y="4.30299" height="4.17199" fill="none" stroke="black"  gorn="0.4.0.0"/>
      <g stroke-width="1.43999" id="23" r="2.08899" cx="49.7478" fill="none" stroke="black"  cy="6.38898" gorn="0.4.0.1"/>
      <g stroke-width="1.43999" id="24" r="2.08799" cx="42.5478" fill="none" stroke="black"  cy="6.38998" gorn="0.4.0.2"/>
      <g stroke-width="1.43999" id="25" r="2.08799" cx="35.3459" fill="none" stroke="black"  cy="6.38998" gorn="0.4.0.3"/>
      <g stroke-width="1.43999" id="26" r="2.08799" cx="28.1429" fill="none" stroke="black"  cy="6.38998" gorn="0.4.0.4"/>
     </g>
    </g>
   </g>
  </g>
  <g partID="341161">
   <g transform="translate(7.01456,91.9523)">
    <g id="copper1"  gorn="0.4">
     <g id="copper0"  gorn="0.4.0">
      <g stroke-width="1.43999" x="26.0559" width="4.17499" id="27" y="4.30299" height="4.17199" fill="none" stroke="black"  gorn="0.4.0.0"/>
      <g stroke-width="1.43999" id="28" r="2.08899" cx="49.7478" fill="none" stroke="black"  cy="6.38898" gorn="0.4.0.1"/>
      <g stroke-width="1.43999" id="29" r="2.08799" cx="42.5478" fill="none" stroke="black"  cy="6.38998" gorn="0.4.0.2"/>
      <g stroke-width="1.43999" id="30" r="2.08799" cx="35.3459" fill="none" stroke="black"  cy="6.38998" gorn="0.4.0.3"/>
      <g stroke-width="1.43999" id="31" r="2.08799" cx="28.1429" fill="none" stroke="black"  cy="6.38998" gorn="0.4.0.4"/>
     </g>
    </g>
   </g>
  </g>
  <g partID="341191">
   <g transform="translate(93.3028,92.0294)">
    <g id="copper1"  gorn="0.4">
     <g id="copper0"  gorn="0.4.0">
      <g stroke-width="1.43999" x="26.0559" width="4.17499" id="32" y="4.30299" height="4.17199" fill="none" stroke="black"  gorn="0.4.0.0"/>
      <g stroke-width="1.43999" id="33" r="2.08899" cx="49.7478" fill="none" stroke="black"  cy="6.38898" gorn="0.4.0.1"/>
      <g stroke-width="1.43999" id="34" r="2.08799" cx="42.5478" fill="none" stroke="black"  cy="6.38998" gorn="0.4.0.2"/>
      <g stroke-width="1.43999" id="35" r="2.08799" cx="35.3459" fill="none" stroke="black"  cy="6.38998" gorn="0.4.0.3"/>
      <g stroke-width="1.43999" id="36" r="2.08799" cx="28.1429" fill="none" stroke="black"  cy="6.38998" gorn="0.4.0.4"/>
     </g>
    </g>
   </g>
  </g>
  <g partID="341221">
   <g transform="translate(180.212,92.0349)">
    <g id="copper1"  gorn="0.4">
     <g id="copper0"  gorn="0.4.0">
      <g stroke-width="1.43999" x="26.0559" width="4.17499" id="37" y="4.30299" height="4.17199" fill="none" stroke="black"  gorn="0.4.0.0"/>
      <g stroke-width="1.43999" id="38" r="2.08899" cx="49.7478" fill="none" stroke="black"  cy="6.38898" gorn="0.4.0.1"/>
      <g stroke-width="1.43999" id="39" r="2.08799" cx="42.5478" fill="none" stroke="black"  cy="6.38998" gorn="0.4.0.2"/>
      <g stroke-width="1.43999" id="40" r="2.08799" cx="35.3459" fill="none" stroke="black"  cy="6.38998" gorn="0.4.0.3"/>
      <g stroke-width="1.43999" id="41" r="2.08799" cx="28.1429" fill="none" stroke="black"  cy="6.38998" gorn="0.4.0.4"/>
     </g>
    </g>
   </g>
  </g>
  <g partID="275830">
   <g transform="translate(52.5054,142.754)">
    <g transform="matrix(0,1,-1,0,0,0)">
     <g id="copper1" gorn="0.3">
      <g transform="matrix(1, 0, 0, 1, -0.615471, -0.110589)">
       <g>
        <g>
         <rect stroke-width="0.0882675" x="2.58909" width="4.01741" id="42" y="0.110589" height="1.86453" fill-opacity="1" fill="black" gorn="0.3.0.0.0"/>
        </g>
       </g>
      </g>
      <g transform="matrix(1, 0, 0, 1, -0.615471, -0.110589)">
       <g>
        <g>
         <rect stroke-width="0.0906259" x="2.6537" width="4.01741" id="43" y="12.648" height="1.96549" fill-opacity="1" fill="black" gorn="0.3.1.0.0"/>
        </g>
       </g>
      </g>
     </g>
    </g>
   </g>
  </g>
  <g partID="276310">
   <g transform="translate(138.794,142.86)">
    <g transform="matrix(0,1,-1,0,0,0)">
     <g id="copper1" gorn="0.3">
      <g transform="matrix(1, 0, 0, 1, -0.615471, -0.110589)">
       <g>
        <g>
         <rect stroke-width="0.0882675" x="2.58909" width="4.01741" id="44" y="0.110589" height="1.86453" fill-opacity="1" fill="black" gorn="0.3.0.0.0"/>
        </g>
       </g>
      </g>
      <g transform="matrix(1, 0, 0, 1, -0.615471, -0.110589)">
       <g>
        <g>
         <rect stroke-width="0.0906259" x="2.6537" width="4.01741" id="45" y="12.648" height="1.96549" fill-opacity="1" fill="black" gorn="0.3.1.0.0"/>
        </g>
       </g>
      </g>
     </g>
    </g>
   </g>
  </g>
  <g partID="276790">
   <g transform="translate(225.702,142.865)">
    <g transform="matrix(0,1,-1,0,0,0)">
     <g id="copper1" gorn="0.3">
      <g transform="matrix(1, 0, 0, 1, -0.615471, -0.110589)">
       <g>
        <g>
         <rect stroke-width="0.0882675" x="2.58909" width="4.01741" id="46" y="0.110589" height="1.86453" fill-opacity="1" fill="black" gorn="0.3.0.0.0"/>
        </g>
       </g>
      </g>
      <g transform="matrix(1, 0, 0, 1, -0.615471, -0.110589)">
       <g>
        <g>
         <rect stroke-width="0.0906259" x="2.6537" width="4.01741" id="47" y="12.648" height="1.96549" fill-opacity="1" fill="black" gorn="0.3.1.0.0"/>
        </g>
       </g>
      </g>
     </g>
    </g>
   </g>
  </g>
  <g partID="277270">
   <g transform="translate(52.5054,56.1843)">
    <g transform="matrix(0,1,-1,0,0,0)">
     <g id="copper1" gorn="0.3">
      <g transform="matrix(1, 0, 0, 1, -0.615471, -0.110589)">
       <g>
        <g>
         <rect stroke-width="0.0882675" x="2.58909" width="4.01741" id="48" y="0.110589" height="1.86453" fill-opacity="1" fill="black" gorn="0.3.0.0.0"/>
        </g>
       </g>
      </g>
      <g transform="matrix(1, 0, 0, 1, -0.615471, -0.110589)">
       <g>
        <g>
         <rect stroke-width="0.0906259" x="2.6537" width="4.01741" id="49" y="12.648" height="1.96549" fill-opacity="1" fill="black" gorn="0.3.1.0.0"/>
        </g>
       </g>
      </g>
     </g>
    </g>
   </g>
  </g>
  <g partID="277750">
   <g transform="translate(138.794,56.3201)">
    <g transform="matrix(0,1,-1,0,0,0)">
     <g id="copper1" gorn="0.3">
      <g transform="matrix(1, 0, 0, 1, -0.615471, -0.110589)">
       <g>
        <g>
         <rect stroke-width="0.0882675" x="2.58909" width="4.01741" id="50" y="0.110589" height="1.86453" fill-opacity="1" fill="black" gorn="0.3.0.0.0"/>
        </g>
       </g>
      </g>
      <g transform="matrix(1, 0, 0, 1, -0.615471, -0.110589)">
       <g>
        <g>
         <rect stroke-width="0.0906259" x="2.6537" width="4.01741" id="51" y="12.648" height="1.96549" fill-opacity="1" fill="black" gorn="0.3.1.0.0"/>
        </g>
       </g>
      </g>
     </g>
    </g>
   </g>
  </g>
  <g partID="278230">
   <g transform="translate(225.702,56.3255)">
    <g transform="matrix(0,1,-1,0,0,0)">
     <g id="copper1" gorn="0.3">
      <g transform="matrix(1, 0, 0, 1, -0.615471, -0.110589)">
       <g>
        <g>
         <rect stroke-width="0.0882675" x="2.58909" width="4.01741" id="52" y="0.110589" height="1.86453" fill-opacity="1" fill="black" gorn="0.3.0.0.0"/>
        </g>
       </g>
      </g>
      <g transform="matrix(1, 0, 0, 1, -0.615471, -0.110589)">
       <g>
        <g>
         <rect stroke-width="0.0906259" x="2.6537" width="4.01741" id="53" y="12.648" height="1.96549" fill-opacity="1" fill="black" gorn="0.3.1.0.0"/>
        </g>
       </g>
      </g>
     </g>
    </g>
   </g>
  </g>
  <g partID="185881">
   <g transform="translate(267.533,76.4259)">
    <g id="copper1"  gorn="0.1">
     <g id="copper0"  gorn="0.1.0">
      <g stroke-width="1.44" x="2.34" id="54" width="3.96" y="9.54" height="3.96" fill="none" stroke="black"  gorn="0.1.0.0"/>
      <g stroke-width="1.44" id="55" r="1.98" cx="4.32" fill="none" stroke="black"  cy="11.52" gorn="0.1.0.1"/>
      <g stroke-width="1.44" id="56" r="1.98" cx="47.52" fill="none" stroke="black"  cy="11.52" gorn="0.1.0.2"/>
      <g stroke-width="1.44" id="57" r="1.98" cx="4.32" fill="none" stroke="black"  cy="18.72" gorn="0.1.0.3"/>
      <g stroke-width="1.44" id="58" r="1.98" cx="47.52" fill="none" stroke="black"  cy="18.72" gorn="0.1.0.4"/>
      <g stroke-width="1.44" id="59" r="1.98" cx="4.32" fill="none" stroke="black"  cy="25.92" gorn="0.1.0.5"/>
      <g stroke-width="1.44" id="60" r="1.98" cx="47.52" fill="none" stroke="black"  cy="25.92" gorn="0.1.0.6"/>
      <g stroke-width="1.44" id="61" r="1.98" cx="4.32" fill="none" stroke="black"  cy="33.12" gorn="0.1.0.7"/>
      <g stroke-width="1.44" id="62" r="1.98" cx="47.52" fill="none" stroke="black"  cy="33.12" gorn="0.1.0.8"/>
      <g stroke-width="1.44" id="63" r="1.98" cx="4.32" fill="none" stroke="black"  cy="40.32" gorn="0.1.0.9"/>
      <g stroke-width="1.44" id="64" r="1.98" cx="47.52" fill="none" stroke="black"  cy="40.32" gorn="0.1.0.10"/>
      <g stroke-width="1.44" id="65" r="1.98" cx="4.32" fill="none" stroke="black"  cy="47.52" gorn="0.1.0.11"/>
      <g stroke-width="1.44" id="66" r="1.98" cx="47.52" fill="none" stroke="black"  cy="47.52" gorn="0.1.0.12"/>
      <g stroke-width="1.44" id="67" r="1.98" cx="4.32" fill="none" stroke="black"  cy="54.72" gorn="0.1.0.13"/>
      <g stroke-width="1.44" id="68" r="1.98" cx="47.52" fill="none" stroke="black"  cy="54.72" gorn="0.1.0.14"/>
      <g stroke-width="1.44" id="69" r="1.98" cx="4.32" fill="none" stroke="black"  cy="61.92" gorn="0.1.0.15"/>
      <g stroke-width="1.44" id="70" r="1.98" cx="47.52" fill="none" stroke="black"  cy="61.92" gorn="0.1.0.16"/>
      <g stroke-width="1.44" id="71" r="1.98" cx="4.32" fill="none" stroke="black"  cy="69.12" gorn="0.1.0.17"/>
      <g stroke-width="1.44" id="72" r="1.98" cx="47.52" fill="none" stroke="black"  cy="69.12" gorn="0.1.0.18"/>
      <g stroke-width="1.44" id="73" r="1.98" cx="4.32" fill="none" stroke="black"  cy="76.32" gorn="0.1.0.19"/>
      <g stroke-width="1.44" id="74" r="1.98" cx="47.52" fill="none" stroke="black"  cy="76.32" gorn="0.1.0.20"/>
      <g stroke-width="1.44" id="75" r="1.98" cx="4.32" fill="none" stroke="black"  cy="83.52" gorn="0.1.0.21"/>
      <g stroke-width="1.44" id="76" r="1.98" cx="47.52" fill="none" stroke="black"  cy="83.52" gorn="0.1.0.22"/>
      <g stroke-width="1.44" id="77" r="1.98" cx="4.32" fill="none" stroke="black"  cy="90.72" gorn="0.1.0.23"/>
      <g stroke-width="1.44" id="78" r="1.98" cx="47.52" fill="none" stroke="black"  cy="90.72" gorn="0.1.0.24"/>
     </g>
    </g>
   </g>
  </g>
  <g partID="404671">
   <g transform="translate(139.111,139.975)">
    <g id="copper1" >
     <g stroke-width="0.850392" id="79" cx="3.01732" r="0.992124" fill="none" stroke="black"  cy="3.01732"/>
    </g>
   </g>
  </g>
  <g partID="406591">
   <g transform="translate(174.535,135.655)">
    <g id="copper1" >
     <g stroke-width="0.850392" id="80" cx="3.01732" r="0.992124" fill="none" stroke="black"  cy="3.01732"/>
    </g>
   </g>
  </g>
  <g partID="405391">
   <g transform="translate(174.535,140.839)">
    <g id="copper1" >
     <g stroke-width="0.850392" id="81" cx="3.01732" r="0.992124" fill="none" stroke="black"  cy="3.01732"/>
    </g>
   </g>
  </g>
  <g partID="409231">
   <g transform="translate(171.079,53.5747)">
    <g id="copper1" >
     <g stroke-width="0.850392" id="82" cx="3.01732" r="0.992124" fill="none" stroke="black"  cy="3.01732"/>
    </g>
   </g>
  </g>
  <g partID="411111">
   <g transform="translate(39.7507,141.703)">
    <g id="copper1" >
     <g stroke-width="0.850392" id="83" cx="3.01732" r="0.992124" fill="none" stroke="black"  cy="3.01732"/>
    </g>
   </g>
  </g>
  <g partID="410691">
   <g transform="translate(188.359,138.247)">
    <g id="copper1" >
     <g stroke-width="0.850392" id="84" cx="3.01732" r="0.992124" fill="none" stroke="black"  cy="3.01732"/>
    </g>
   </g>
  </g>
  <g partID="408291">
   <g transform="translate(174.535,43.2067)">
    <g id="copper1" >
     <g stroke-width="0.850392" id="85" cx="3.01732" r="0.992124" fill="none" stroke="black"  cy="3.01732"/>
    </g>
   </g>
  </g>
  <g partID="418631">
   <g transform="translate(142.567,25.9267)">
    <g id="copper1" >
     <g stroke-width="0.850392" id="86" cx="3.01732" r="0.992124" fill="none" stroke="black"  cy="3.01732"/>
    </g>
   </g>
  </g>
  <g partID="418591">
   <g transform="translate(142.567,19.0147)">
    <g id="copper1" >
     <g stroke-width="0.850392" id="87" cx="3.01732" r="0.992124" fill="none" stroke="black"  cy="3.01732"/>
    </g>
   </g>
  </g>
  <g partID="418511">
   <g transform="translate(156.391,15.5587)">
    <g id="copper1" >
     <g stroke-width="0.850392" id="88" cx="3.01732" r="0.992124" fill="none" stroke="black"  cy="3.01732"/>
    </g>
   </g>
  </g>
  <g partID="418451">
   <g transform="translate(176.263,19.8787)">
    <g id="copper1" >
     <g stroke-width="0.850392" id="89" cx="3.01732" r="0.992124" fill="none" stroke="black"  cy="3.01732"/>
    </g>
   </g>
  </g>
  <g partID="417931">
   <g transform="translate(235.015,93.3187)">
    <g id="copper1" >
     <g stroke-width="0.850392" id="90" cx="3.01732" r="0.992124" fill="none" stroke="black"  cy="3.01732"/>
    </g>
   </g>
  </g>
  <g partID="408111">
   <g transform="translate(116.647,87.2707)">
    <g id="copper1" >
     <g stroke-width="0.850392" id="91" cx="3.01732" r="0.992124" fill="none" stroke="black"  cy="3.01732"/>
    </g>
   </g>
  </g>
  <g partID="407891">
   <g transform="translate(121.831,51.8467)">
    <g id="copper1" >
     <g stroke-width="0.850392" id="92" cx="3.01732" r="0.992124" fill="none" stroke="black"  cy="3.01732"/>
    </g>
   </g>
  </g>
  <g partID="407651">
   <g transform="translate(174.535,32.8387)">
    <g id="copper1" >
     <g stroke-width="0.850392" id="93" cx="3.01732" r="0.992124" fill="none" stroke="black"  cy="3.01732"/>
    </g>
   </g>
  </g>
  <g partID="412811">
   <g transform="translate(184.903,55.3027)">
    <g id="copper1" >
     <g stroke-width="0.850392" id="94" cx="3.01732" r="0.992124" fill="none" stroke="black"  cy="3.01732"/>
    </g>
   </g>
  </g>
  <g partID="407391">
   <g transform="translate(174.535,37.1587)">
    <g id="copper1" >
     <g stroke-width="0.850392" id="95" cx="3.01732" r="0.992124" fill="none" stroke="black"  cy="3.01732"/>
    </g>
   </g>
  </g>
  <g partID="419451">
   <g transform="translate(304.135,128.743)">
    <g id="copper1" >
     <g stroke-width="0.850392" id="96" cx="3.01732" r="0.992124" fill="none" stroke="black"  cy="3.01732"/>
    </g>
   </g>
  </g>
  <g partID="405571">
   <g transform="translate(174.535,129.607)">
    <g id="copper1" >
     <g stroke-width="0.850392" id="97" cx="3.01732" r="0.992124" fill="none" stroke="black"  cy="3.01732"/>
    </g>
   </g>
  </g>
  <g partID="407191">
   <g transform="translate(182.311,133.063)">
    <g id="copper1" >
     <g stroke-width="0.850392" id="98" cx="3.01732" r="0.992124" fill="none" stroke="black"  cy="3.01732"/>
    </g>
   </g>
  </g>
  <g partID="405971">
   <g transform="translate(174.535,125.287)">
    <g id="copper1" >
     <g stroke-width="0.850392" id="99" cx="3.01732" r="0.992124" fill="none" stroke="black"  cy="3.01732"/>
    </g>
   </g>
  </g>
  <g partID="417531">
   <g transform="translate(51.8467,57.8947)">
    <g id="copper1" >
     <g stroke-width="0.850392" id="100" cx="3.01732" r="0.992124" fill="none" stroke="black"  cy="3.01732"/>
    </g>
   </g>
  </g>
  <g partID="417431">
   <g transform="translate(222.055,117.511)">
    <g id="copper1" >
     <g stroke-width="0.850392" id="101" cx="3.01732" r="0.992124" fill="none" stroke="black"  cy="3.01732"/>
    </g>
   </g>
  </g>
  <g partID="417371">
   <g transform="translate(218.599,142.567)">
    <g id="copper1" >
     <g stroke-width="0.850392" id="102" cx="3.01732" r="0.992124" fill="none" stroke="black"  cy="3.01732"/>
    </g>
   </g>
  </g>
  <g partID="416291">
   <g transform="translate(228.967,55.3027)">
    <g id="copper1" >
     <g stroke-width="0.850392" id="103" cx="3.01732" r="0.992124" fill="none" stroke="black"  cy="3.01732"/>
    </g>
   </g>
  </g>
  <g partID="416051">
   <g transform="translate(200.455,10.3747)">
    <g id="copper1" >
     <g stroke-width="0.850392" id="104" cx="3.01732" r="0.992124" fill="none" stroke="black"  cy="3.01732"/>
    </g>
   </g>
  </g>
  <g partID="415651">
   <g transform="translate(139.111,104.551)">
    <g id="copper1" >
     <g stroke-width="0.850392" id="105" cx="3.01732" r="0.992124" fill="none" stroke="black"  cy="3.01732"/>
    </g>
   </g>
  </g>
  <g partID="415391">
   <g transform="translate(144.295,117.511)">
    <g id="copper1" >
     <g stroke-width="0.850392" id="106" cx="3.01732" r="0.992124" fill="none" stroke="black"  cy="3.01732"/>
    </g>
   </g>
  </g>
  <g partID="415251">
   <g transform="translate(144.295,77.7667)">
    <g id="copper1" >
     <g stroke-width="0.850392" id="107" cx="3.01732" r="0.992124" fill="none" stroke="black"  cy="3.01732"/>
    </g>
   </g>
  </g>
  <g partID="414971">
   <g transform="translate(148.615,41.4787)">
    <g id="copper1" >
     <g stroke-width="0.850392" id="108" cx="3.01732" r="0.992124" fill="none" stroke="black"  cy="3.01732"/>
    </g>
   </g>
  </g>
  <g partID="410231">
   <g transform="translate(169.351,60.4867)">
    <g id="copper1" >
     <g stroke-width="0.850392" id="109" cx="3.01732" r="0.992124" fill="none" stroke="black"  cy="3.01732"/>
    </g>
   </g>
  </g>
  <g partID="410171">
   <g transform="translate(176.263,118.375)">
    <g id="copper1" >
     <g stroke-width="0.850392" id="110" cx="3.01732" r="0.992124" fill="none" stroke="black"  cy="3.01732"/>
    </g>
   </g>
  </g>
  <g partID="409771">
   <g transform="translate(173.671,57.8947)">
    <g id="copper1" >
     <g stroke-width="0.850392" id="111" cx="3.01732" r="0.992124" fill="none" stroke="black"  cy="3.01732"/>
    </g>
   </g>
  </g>
  <g partID="412371">
   <g transform="translate(172.807,107.143)">
    <g id="copper1" >
     <g stroke-width="0.850392" id="112" cx="3.01732" r="0.992124" fill="none" stroke="black"  cy="3.01732"/>
    </g>
   </g>
  </g>
  <g partID="412271">
   <g transform="translate(178.855,114.055)">
    <g id="copper1" >
     <g stroke-width="0.850392" id="113" cx="3.01732" r="0.992124" fill="none" stroke="black"  cy="3.01732"/>
    </g>
   </g>
  </g>
  <g partID="411891">
   <g transform="translate(160.711,144.295)">
    <g id="copper1" >
     <g stroke-width="0.850392" id="114" cx="3.01732" r="0.992124" fill="none" stroke="black"  cy="3.01732"/>
    </g>
   </g>
  </g>
  <g partID="411531">
   <g transform="translate(173.671,62.2147)">
    <g id="copper1" >
     <g stroke-width="0.850392" id="115" cx="3.01732" r="0.992124" fill="none" stroke="black"  cy="3.01732"/>
    </g>
   </g>
  </g>
  <g partID="411431">
   <g transform="translate(180.583,55.3027)">
    <g id="copper1" >
     <g stroke-width="0.850392" id="116" cx="3.01732" r="0.992124" fill="none" stroke="black"  cy="3.01732"/>
    </g>
   </g>
  </g>
 </g>
</svg>
