<?xml version='1.0' encoding='UTF-8' standalone='no'?>
<!-- Created with Fritzing (http://www.fritzing.org/) -->
<svg xmlns="http://www.w3.org/2000/svg" x="0in" width="4.53937in" version="1.2" baseProfile="tiny" y="0in" viewBox="0 0 326.835 178.583" height="2.48031in" xmlns:svg="http://www.w3.org/2000/svg" >
 <g partID="177851">
  <g id="silkscreen0">
   <rect stroke-width="0.576" x="0.288" width="326.259" y="0.288" height="178.007" fill="none" stroke="black"/>
  </g>
 </g>
 <g partID="177850">
  <g id="board">
   <rect stroke-width="0.5" x="0.288" id="boardoutline" width="326.259" y="0.288" fill-opacity="0.5" height="178.007" fill="none" stroke="black"/>
  </g>
 </g>
 <g partID="403381">
  <g transform="translate(268.204,62.5643)">
   <g transform="matrix(0,-1,1,0,0,0)">
    <g id="silkscreen0" flipped="1">
     <g transform="matrix(-1, 0, 0, 1, 64.3037, 0)">
      <g>
       <g transform="matrix(0.766323, 0, 0, 1, 0.157873, -0.0032154)">
        <g>
         <g>
          <g stroke-width="0.283465" fill="none" style="stroke-miterlimit:4;stroke-dasharray:none" gorn="0.3.0.0">
           <g stroke-width="0.749999" font-size="2.25778" id="text916" fill-opacity="1" fill="black" stroke="none" aria-label="CLK" style="font-style:normal;font-weight:normal;line-height:1.25;font-family:Droid Sans;" gorn="0.3.0.0.0">
            <path stroke-width="0.749999" d="m40.2267,23.6601l0,0.47461q-0.427734,0.172851,-1.04883,0.172851,-0.905275,0,-1.38574,-0.57422,-0.48047,-0.57422,-0.48047,-1.63184,0,-1.01367,0.524415,-1.60547,0.524415,-0.591797,1.43262,-0.591797,0.644533,0,1.12207,0.251955l-0.228501,0.457033q-0.451174,-0.228515,-0.893557,-0.228515,-0.629884,0,-1.00488,0.46582,-0.375001,0.462892,-0.375001,1.25684,0,0.840821,0.351564,1.2832,0.351561,0.439455,1.02832,0.439455,0.38086,0,0.958008,-0.169923z" font-size="0.597371" id="path989" style="font-style:normal;font-variant:normal;font-weight:normal;font-stretch:normal;font-family:Droid Sans;-inkscape-font-specification:'Droid Sans Mono, Normal';font-variant-ligatures:normal;font-variant-caps:normal;font-variant-numeric:normal;font-variant-east-asian:normal;" gorn="0.3.0.0.0.0"/>
            <path stroke-width="0.749999" d="M41.214,24.249L41.214,19.9658l0.547852,0l0,3.79689l1.86036,0l0,0.486329z" font-size="0.597371" id="path991" style="font-style:normal;font-variant:normal;font-weight:normal;font-stretch:normal;font-family:Droid Sans;-inkscape-font-specification:'Droid Sans Mono, Normal';font-variant-ligatures:normal;font-variant-caps:normal;font-variant-numeric:normal;font-variant-east-asian:normal;" gorn="0.3.0.0.0.1"/>
            <path stroke-width="0.749999" d="M47.6388,24.249L47.0205,24.249L45.7021,22.2041,45.2923,22.538L45.2923,24.249L44.7471,24.249L44.7471,19.9658l0.544924,0l0,2.14161l0.354492,-0.492188,1.32715,-1.64942l0.612306,0L46.0596,21.832Z" font-size="0.597371" id="path993" style="font-style:normal;font-variant:normal;font-weight:normal;font-stretch:normal;font-family:Droid Sans;-inkscape-font-specification:'Droid Sans Mono, Normal';font-variant-ligatures:normal;font-variant-caps:normal;font-variant-numeric:normal;font-variant-east-asian:normal;" gorn="0.3.0.0.0.2"/>
           </g>
           <g stroke-width="0.749999" font-size="2.25778" id="text920" fill-opacity="1" fill="black" stroke="none" aria-label="MOSI" style="font-style:normal;font-weight:normal;line-height:1.25;font-family:Droid Sans;" gorn="0.3.0.0.1">
            <path stroke-width="0.749999" d="M38.4922,31.449,37.6778,27.699l-0.0235276,0q0.0527244,0.779298,0.0527244,1.18945l0,2.56055L37.2648,31.449L37.2648,27.1658l0.723634,0l0.726565,3.4922l0.0175748,0l0.732421,-3.4922l0.738283,0l0,4.28321l-0.448243,0l0,-2.59864q0,-0.298828,0.0410173,-1.14551l-0.0235276,0l-0.829103,3.74414z" font-size="0.597371" id="path996" style="font-style:normal;font-variant:normal;font-weight:normal;font-stretch:normal;font-family:Droid Sans;-inkscape-font-specification:'Droid Sans Mono, Normal';font-variant-ligatures:normal;font-variant-caps:normal;font-variant-numeric:normal;font-variant-east-asian:normal;" gorn="0.3.0.0.1.0"/>
            <path stroke-width="0.749999" d="m42.3361,31.5076q-1.5586,0,-1.5586,-2.21192,0,-2.19727,1.56446,-2.19727,0.750002,0,1.14844,0.57422,0.401369,0.57129,0.401369,1.62891,0,1.05762,-0.4043,1.63184,-0.404297,0.57422,-1.15137,0.57422zm0,-0.477539q0.506837,0,0.741212,-0.424806,0.237317,-0.424806,0.237317,-1.30371,0,-0.887698,-0.240236,-1.30371,-0.237317,-0.418946,-0.732424,-0.418946,-0.987307,0,-0.987307,1.72266,0,1.72852,0.981448,1.72852z" font-size="0.597371" id="path998" style="font-style:normal;font-variant:normal;font-weight:normal;font-stretch:normal;font-family:Droid Sans;-inkscape-font-specification:'Droid Sans Mono, Normal';font-variant-ligatures:normal;font-variant-caps:normal;font-variant-numeric:normal;font-variant-east-asian:normal;" gorn="0.3.0.0.1.1"/>
            <path stroke-width="0.749999" d="m44.5422,31.3055l0,-0.521484q0.618165,0.251943,1.21289,0.251943,1.02539,0,1.02539,-0.703128,0,-0.304688,-0.208006,-0.468748,-0.205087,-0.164069,-0.834962,-0.38965,-0.609378,-0.213874,-0.875979,-0.509766,-0.263679,-0.298828,-0.263679,-0.773439,0,-0.509766,0.375001,-0.796876,0.377932,-0.290038,1.03418,-0.290038,0.670901,0,1.21875,0.228515l-0.187512,0.48047q-0.56543,-0.228515,-1.05469,-0.228515,-0.858399,0,-0.858399,0.612306,0,0.298828,0.190431,0.48047,0.193351,0.181644,0.793947,0.389648,0.720703,0.257811,0.960939,0.533205,0.243156,0.272466,0.243156,0.703125,0,0.562501,-0.407228,0.884767,-0.404297,0.319337,-1.15137,0.319337,-0.77637,0,-1.21289,-0.202139z" font-size="0.597371" id="path1000" style="font-style:normal;font-variant:normal;font-weight:normal;font-stretch:normal;font-family:Droid Sans;-inkscape-font-specification:'Droid Sans Mono, Normal';font-variant-ligatures:normal;font-variant-caps:normal;font-variant-numeric:normal;font-variant-east-asian:normal;" gorn="0.3.0.0.1.2"/>
            <path stroke-width="0.749999" d="M50.6594,31.449L48.386,31.449L48.386,31.0887L49.25,31.03L49.25,27.5847L48.386,27.5261L48.386,27.1658l2.27344,0L50.6594,27.5261L49.7979,27.5847l0,3.44531l0.86133,0.0585921z" font-size="0.597371" id="path1002" style="font-style:normal;font-variant:normal;font-weight:normal;font-stretch:normal;font-family:Droid Sans;-inkscape-font-specification:'Droid Sans Mono, Normal';font-variant-ligatures:normal;font-variant-caps:normal;font-variant-numeric:normal;font-variant-east-asian:normal;" gorn="0.3.0.0.1.3"/>
           </g>
           <g stroke-width="0.749999" font-size="2.25778" id="text924" fill-opacity="1" fill="black" stroke="none" aria-label="CS" style="font-style:normal;font-weight:normal;line-height:1.25;font-family:Droid Sans;" gorn="0.3.0.0.2">
            <path stroke-width="0.749999" d="m40.2267,38.0602l0,0.47461q-0.427734,0.172857,-1.04883,0.172857,-0.905275,0,-1.38574,-0.57422,-0.48047,-0.57422,-0.48047,-1.63184,0,-1.01367,0.524415,-1.60547,0.524415,-0.591797,1.43262,-0.591797,0.644533,0,1.12207,0.251943l-0.228501,0.45703q-0.451174,-0.228501,-0.893557,-0.228501,-0.629884,0,-1.00488,0.46582,-0.375001,0.462892,-0.375001,1.25684,0,0.840821,0.351564,1.2832,0.351561,0.439452,1.02832,0.439452,0.38086,0,0.958008,-0.169909z" font-size="0.597371" id="path1005" style="font-style:normal;font-variant:normal;font-weight:normal;font-stretch:normal;font-family:Droid Sans;-inkscape-font-specification:'Droid Sans Mono, Normal';font-variant-ligatures:normal;font-variant-caps:normal;font-variant-numeric:normal;font-variant-east-asian:normal;" gorn="0.3.0.0.2.0"/>
            <path stroke-width="0.749999" d="m40.9445,38.5055l0,-0.521484q0.618165,0.251943,1.21289,0.251943,1.02539,0,1.02539,-0.703128,0,-0.304688,-0.208006,-0.468751,-0.205087,-0.164069,-0.834962,-0.389648,-0.609378,-0.213874,-0.875979,-0.509766,-0.263679,-0.298828,-0.263679,-0.773439,0,-0.509769,0.375001,-0.796878,0.377932,-0.290038,1.03418,-0.290038,0.670901,0,1.21875,0.228501l-0.187512,0.48047q-0.56543,-0.228501,-1.05469,-0.228501,-0.858399,0,-0.858399,0.612306,0,0.298828,0.190431,0.48047,0.193351,0.181644,0.793947,0.389648,0.720703,0.257811,0.960939,0.533205,0.243156,0.272466,0.243156,0.703125,0,0.562501,-0.407228,0.884767,-0.404297,0.319337,-1.15137,0.319337,-0.77637,0,-1.21289,-0.202139z" font-size="0.597371" id="path1007" style="font-style:normal;font-variant:normal;font-weight:normal;font-stretch:normal;font-family:Droid Sans;-inkscape-font-specification:'Droid Sans Mono, Normal';font-variant-ligatures:normal;font-variant-caps:normal;font-variant-numeric:normal;font-variant-east-asian:normal;" gorn="0.3.0.0.2.1"/>
           </g>
           <g stroke-width="0.749999" font-size="2.25778" id="text928" fill-opacity="1" fill="black" stroke="none" aria-label="VCC" style="font-style:normal;font-weight:normal;line-height:1.25;font-family:Droid Sans;" gorn="0.3.0.0.3">
            <path stroke-width="0.749999" d="m39.8546,41.5658l0.58301,0l-1.43262,4.28321l-0.547852,0l-1.42676,-4.28321l0.57422,0l0.864258,2.71583q0.120104,0.37207,0.257811,0.978517,0.090822,-0.424806,0.272466,-0.996097z" font-size="0.597371" id="path1010" style="font-style:normal;font-variant:normal;font-weight:normal;font-stretch:normal;font-family:Droid Sans;-inkscape-font-specification:'Droid Sans Mono, Normal';font-variant-ligatures:normal;font-variant-caps:normal;font-variant-numeric:normal;font-variant-east-asian:normal;" gorn="0.3.0.0.3.0"/>
            <path stroke-width="0.749999" d="m43.8245,45.2602l0,0.47461q-0.427734,0.172857,-1.04883,0.172857,-0.905275,0,-1.38574,-0.57422,-0.48047,-0.57422,-0.48047,-1.63184,0,-1.01367,0.524415,-1.60547,0.524415,-0.591797,1.43262,-0.591797,0.644533,0,1.12207,0.251943l-0.228501,0.45703q-0.451174,-0.228501,-0.893557,-0.228501,-0.629884,0,-1.00488,0.46582,-0.375001,0.462892,-0.375001,1.25684,0,0.840821,0.351564,1.2832,0.351564,0.439452,1.02832,0.439452,0.38086,0,0.958008,-0.169909z" font-size="0.597371" id="path1012" style="font-style:normal;font-variant:normal;font-weight:normal;font-stretch:normal;font-family:Droid Sans;-inkscape-font-specification:'Droid Sans Mono, Normal';font-variant-ligatures:normal;font-variant-caps:normal;font-variant-numeric:normal;font-variant-east-asian:normal;" gorn="0.3.0.0.3.1"/>
            <path stroke-width="0.749999" d="m47.4219,45.2602l0,0.47461q-0.427734,0.172857,-1.04883,0.172857,-0.905275,0,-1.38574,-0.57422,-0.48047,-0.57422,-0.48047,-1.63184,0,-1.01367,0.524415,-1.60547,0.524415,-0.591797,1.43262,-0.591797,0.644533,0,1.12207,0.251943l-0.228529,0.45703q-0.451174,-0.228501,-0.893557,-0.228501,-0.629884,0,-1.00488,0.46582,-0.375001,0.462892,-0.375001,1.25684,0,0.840821,0.351564,1.2832,0.351564,0.439452,1.02832,0.439452,0.38086,0,0.958008,-0.169909z" font-size="0.597371" id="path1014" style="font-style:normal;font-variant:normal;font-weight:normal;font-stretch:normal;font-family:Droid Sans;-inkscape-font-specification:'Droid Sans Mono, Normal';font-variant-ligatures:normal;font-variant-caps:normal;font-variant-numeric:normal;font-variant-east-asian:normal;" gorn="0.3.0.0.3.2"/>
           </g>
           <g stroke-width="0.749999" font-size="2.25778" id="text908" fill-opacity="1" fill="black" stroke="none" aria-label="GND" style="font-style:normal;font-weight:normal;line-height:1.25;font-family:Droid Sans;" gorn="0.3.0.0.4">
            <path stroke-width="0.749999" d="m38.9024,7.58727l1.23633,0l0,2.10059q-0.571289,0.219728,-1.23047,0.219728,-0.76758,0,-1.20118,-0.58301,-0.430665,-0.585938,-0.430665,-1.62305,0,-1.02832,0.47461,-1.61133,0.47461,-0.585938,1.30664,-0.585938,0.562501,0,1.01367,0.251955l-0.210926,0.47461q-0.427734,-0.246093,-0.820312,-0.246093,-0.562501,0,-0.875979,0.457033,-0.313478,0.454102,-0.313478,1.26563,0,1.72266,1.1543,1.72266,0.284182,0,0.591797,-0.08496L41.5332,8.06774l-0.694335,0z" font-size="0.597371" id="path1017" style="font-style:normal;font-variant:normal;font-weight:normal;font-stretch:normal;font-family:Droid Sans;-inkscape-font-specification:'Droid Sans Mono, Normal';font-variant-ligatures:normal;font-variant-caps:normal;font-variant-numeric:normal;font-variant-east-asian:normal;" gorn="0.3.0.0.4.0"/>
            <path stroke-width="0.749999" d="M43.7306,9.84898L43.1008,9.84898L41.4014,6.30405l-0.0235276,0q0.0527244,0.811525,0.0527244,1.22168L41.4306,9.84898L40.9269,9.84898L40.9269,5.56577l0.624025,0l1.69336,3.52735l0.0175748,0Q43.2207,8.20542,43.2207,7.90954L43.2207,5.56577l0.509766,0z" font-size="0.597371" id="path1019" style="font-style:normal;font-variant:normal;font-weight:normal;font-stretch:normal;font-family:Droid Sans;-inkscape-font-specification:'Droid Sans Mono, Normal';font-variant-ligatures:normal;font-variant-caps:normal;font-variant-numeric:normal;font-variant-east-asian:normal;" gorn="0.3.0.0.4.1"/>
            <path stroke-width="0.749999" d="M44.5246,9.84898L44.5246,5.56577l1.00195,0q0.928712,0,1.44434,0.553711,0.518556,0.553711,0.518556,1.54688,0,1.05762,-0.536134,1.62012,-0.536134,0.562501,-1.54688,0.562501zm0.547852,-3.81739l0,3.34862l0.281254,0q1.5586,0,1.5586,-1.69629,0,-1.65235,-1.44434,-1.65235z" font-size="0.597371" id="path1021" style="font-style:normal;font-variant:normal;font-weight:normal;font-stretch:normal;font-family:Droid Sans;-inkscape-font-specification:'Droid Sans Mono, Normal';font-variant-ligatures:normal;font-variant-caps:normal;font-variant-numeric:normal;font-variant-east-asian:normal;" gorn="0.3.0.0.4.2"/>
           </g>
           <g stroke-width="0.749999" font-size="2.25778" id="text912" fill-opacity="1" fill="black" stroke="none" aria-label="MISO" style="font-style:normal;font-weight:normal;line-height:1.25;font-family:Droid Sans;" gorn="0.3.0.0.5">
            <path stroke-width="0.749999" d="M38.4922,17.049,37.6778,13.299l-0.0235276,0q0.0527244,0.779298,0.0527244,1.18945L37.707,17.049L37.2648,17.049L37.2648,12.7658l0.723634,0l0.726565,3.4922l0.0175748,0l0.732421,-3.4922l0.738283,0L40.2032,17.049l-0.448243,0L39.7551,14.4503q0,-0.298828,0.0410173,-1.14551l-0.0235276,0L38.9435,17.049Z" font-size="0.597371" id="path1024" style="font-style:normal;font-variant:normal;font-weight:normal;font-stretch:normal;font-family:Droid Sans;-inkscape-font-specification:'Droid Sans Mono, Normal';font-variant-ligatures:normal;font-variant-caps:normal;font-variant-numeric:normal;font-variant-east-asian:normal;" gorn="0.3.0.0.5.0"/>
            <path stroke-width="0.749999" d="M43.4639,17.049L41.1905,17.049L41.1905,16.6886L42.0548,16.63L42.0548,13.1847L41.1905,13.1261L41.1905,12.7658l2.27344,0L43.4639,13.1261l-0.86133,0.058595l0,3.44531l0.86133,0.058595z" font-size="0.597371" id="path1026" style="font-style:normal;font-variant:normal;font-weight:normal;font-stretch:normal;font-family:Droid Sans;-inkscape-font-specification:'Droid Sans Mono, Normal';font-variant-ligatures:normal;font-variant-caps:normal;font-variant-numeric:normal;font-variant-east-asian:normal;" gorn="0.3.0.0.5.1"/>
            <path stroke-width="0.749999" d="M44.5422,16.9054L44.5422,16.3839q0.618165,0.251955,1.21289,0.251955,1.02539,0,1.02539,-0.703125,0,-0.304688,-0.208006,-0.468751,-0.205087,-0.164064,-0.834962,-0.38965,-0.609378,-0.213868,-0.875979,-0.509766,-0.263679,-0.298828,-0.263679,-0.773439,0,-0.509766,0.375001,-0.796876,0.377932,-0.290038,1.03418,-0.290038,0.670901,0,1.21875,0.228515l-0.187512,0.48047q-0.56543,-0.228515,-1.05469,-0.228515,-0.858399,0,-0.858399,0.612306,0,0.298828,0.190431,0.48047,0.193351,0.181641,0.793947,0.38965,0.720703,0.257814,0.960939,0.533205,0.243156,0.27246,0.243156,0.703125,0,0.562501,-0.407228,0.884767,-0.404297,0.319337,-1.15137,0.319337,-0.77637,0,-1.21289,-0.20215z" font-size="0.597371" id="path1028" style="font-style:normal;font-variant:normal;font-weight:normal;font-stretch:normal;font-family:Droid Sans;-inkscape-font-specification:'Droid Sans Mono, Normal';font-variant-ligatures:normal;font-variant-caps:normal;font-variant-numeric:normal;font-variant-east-asian:normal;" gorn="0.3.0.0.5.2"/>
            <path stroke-width="0.749999" d="m49.5314,17.1076q-1.5586,0,-1.5586,-2.21192,0,-2.19727,1.56446,-2.19727,0.750002,0,1.14844,0.57422,0.401369,0.57129,0.401369,1.62891,0,1.05762,-0.404297,1.63184,-0.4043,0.57422,-1.15137,0.57422zm0,-0.47754q0.506837,0,0.741212,-0.424805,0.237317,-0.424805,0.237317,-1.30371,0,-0.887697,-0.240236,-1.30371,-0.237317,-0.418946,-0.732424,-0.418946,-0.987304,0,-0.987304,1.72266,0,1.72852,0.981445,1.72852z" font-size="0.597371" id="path1030" style="font-style:normal;font-variant:normal;font-weight:normal;font-stretch:normal;font-family:Droid Sans;-inkscape-font-specification:'Droid Sans Mono, Normal';font-variant-ligatures:normal;font-variant-caps:normal;font-variant-numeric:normal;font-variant-east-asian:normal;" gorn="0.3.0.0.5.3"/>
           </g>
           <path stroke-width="0.305144" d="M6.92325,0.388945L72.9133,0.388945L72.9133,49.945L6.92325,49.945Z" id="rect974" stroke-opacity="1" fill="none" stroke="black" style="stroke-linejoin:round;stroke-miterlimit:4;stroke-dasharray:none;" gorn="0.3.0.0.6"/>
           <path stroke-width="0.292657" d="M0.263321,0.691503L6.93403,0.691503L6.93403,39.4634L0.263321,39.4634Z" id="rect976" stroke-opacity="1" fill="none" stroke="black" style="stroke-linejoin:round;stroke-miterlimit:4;stroke-dasharray:none;" gorn="0.3.0.0.7"/>
          </g>
         </g>
        </g>
       </g>
      </g>
     </g>
    </g>
   </g>
  </g>
 </g>
 <g partID="308841">
  <g transform="translate(174.172,25.3819)">
   <g transform="matrix(0,1,-1,0,0,0)">
    <g id="silkscreen0" flipped="1">
     <g transform="matrix(-1, 0, 0, 1, 29.232, 0)">
      <g>
       <g>
        <g>
         <line stroke-width="0.432" class="other" x1="27.936" x2="1.296" stroke-linecap="round" y2="4.0938" stroke="black" y1="4.0938"/>
         <path d="M27.936,15.1818A1.08,1.08,0,0,0,29.016,14.1018" stroke-width="0.432" class="other" fill="none" stroke="black"/>
         <path d="M1.296,4.0938A1.08,1.08,0,0,0,0.216,5.1738" stroke-width="0.432" class="other" fill="none" stroke="black"/>
         <path d="M29.016,5.1738A1.08,1.08,0,0,0,27.936,4.0938" stroke-width="0.432" class="other" fill="none" stroke="black"/>
         <path d="M0.216,14.1018A1.08,1.08,0,0,0,1.296,15.1818" stroke-width="0.432" class="other" fill="none" stroke="black"/>
         <line stroke-width="0.432" class="other" x1="1.296" x2="27.936" stroke-linecap="round" y2="15.1818" stroke="black" y1="15.1818"/>
         <line stroke-width="0.432" class="other" x1="29.016" x2="29.016" stroke-linecap="round" y2="5.1738" stroke="black" y1="14.1018"/>
         <line stroke-width="0.432" class="other" x1="0.216" x2="0.216" stroke-linecap="round" y2="8.19781" stroke="black" y1="5.1738"/>
         <line stroke-width="0.432" class="other" x1="0.216" x2="0.216" stroke-linecap="round" y2="11.0778" stroke="black" y1="8.19781"/>
         <line stroke-width="0.432" class="other" x1="0.216" x2="0.216" stroke-linecap="round" y2="14.1018" stroke="black" y1="11.0778"/>
         <path d="M0.216,11.0778A1.44,1.44,0,1,0,0.216,8.19781" stroke-width="0.432" class="other" fill="none" stroke="black"/>
         <line stroke-width="0.144" class="other" x1="0.216" x2="29.016" stroke-linecap="round" y2="14.1738" stroke="black" y1="14.1738"/>
        </g>
       </g>
      </g>
     </g>
    </g>
   </g>
  </g>
 </g>
 <g partID="309361">
  <g transform="translate(174.172,114.163)">
   <g transform="matrix(0,1,-1,0,0,0)">
    <g id="silkscreen0" flipped="1">
     <g transform="matrix(-1, 0, 0, 1, 29.232, 0)">
      <g>
       <g>
        <g>
         <line stroke-width="0.432" class="other" x1="27.936" x2="1.296" stroke-linecap="round" y2="4.0938" stroke="black" y1="4.0938"/>
         <path d="M27.936,15.1818A1.08,1.08,0,0,0,29.016,14.1018" stroke-width="0.432" class="other" fill="none" stroke="black"/>
         <path d="M1.296,4.0938A1.08,1.08,0,0,0,0.216,5.1738" stroke-width="0.432" class="other" fill="none" stroke="black"/>
         <path d="M29.016,5.1738A1.08,1.08,0,0,0,27.936,4.0938" stroke-width="0.432" class="other" fill="none" stroke="black"/>
         <path d="M0.216,14.1018A1.08,1.08,0,0,0,1.296,15.1818" stroke-width="0.432" class="other" fill="none" stroke="black"/>
         <line stroke-width="0.432" class="other" x1="1.296" x2="27.936" stroke-linecap="round" y2="15.1818" stroke="black" y1="15.1818"/>
         <line stroke-width="0.432" class="other" x1="29.016" x2="29.016" stroke-linecap="round" y2="5.1738" stroke="black" y1="14.1018"/>
         <line stroke-width="0.432" class="other" x1="0.216" x2="0.216" stroke-linecap="round" y2="8.19781" stroke="black" y1="5.1738"/>
         <line stroke-width="0.432" class="other" x1="0.216" x2="0.216" stroke-linecap="round" y2="11.0778" stroke="black" y1="8.19781"/>
         <line stroke-width="0.432" class="other" x1="0.216" x2="0.216" stroke-linecap="round" y2="14.1018" stroke="black" y1="11.0778"/>
         <path d="M0.216,11.0778A1.44,1.44,0,1,0,0.216,8.19781" stroke-width="0.432" class="other" fill="none" stroke="black"/>
         <line stroke-width="0.144" class="other" x1="0.216" x2="29.016" stroke-linecap="round" y2="14.1738" stroke="black" y1="14.1738"/>
        </g>
       </g>
      </g>
     </g>
    </g>
   </g>
  </g>
 </g>
 <g partID="177851">
  <g id="silkscreen0">
   <rect stroke-width="0.576" x="0.288" width="326.259" y="0.288" height="178.007" fill="none" stroke="black"/>
  </g>
 </g>
 <g id="partLabel" partID="308840">
  <g transform="translate(149.918,24.7601)">
   <g transform="matrix(-1,0,0,1,0,0)">
    <g font-size="5" font-family="'OCRA'" id="silkscreen0Label" font-style="normal" font-weight="normal" fill-opacity="1" fill="#000000" stroke="none">
     <text x="0" y="3.75">U1</text>
    </g>
   </g>
  </g>
 </g>
 <g id="partLabel" partID="309360">
  <g transform="translate(149.918,113.541)">
   <g transform="matrix(-1,0,0,1,0,0)">
    <g font-size="5" font-family="'OCRA'" id="silkscreen0Label" font-style="normal" font-weight="normal" fill-opacity="1" fill="#000000" stroke="none">
     <text x="0" y="3.75">U2</text>
    </g>
   </g>
  </g>
 </g>
 <g id="partLabel" partID="403380">
  <g transform="translate(261.216,-0.351207)">
   <g transform="matrix(-1,0,0,1,0,0)">
    <g font-size="5" font-family="'OCRA'" id="silkscreen0Label" font-style="normal" font-weight="normal" fill-opacity="1" fill="#000000" stroke="none">
     <text x="0" y="3.75">SD Reader</text>
    </g>
   </g>
  </g>
 </g>
 <g partID="403380">
  <g transform="translate(268.204,62.5643)">
   <g transform="matrix(0,-1,1,0,0,0)">
    <g id="copper0" flipped="1">
     <g transform="matrix(-1, 0, 0, 1, 64.3037, 0)">
      <g>
       <g>
        <g gorn="0.4">
         <g id="copper0" gorn="0.4.0">
          <circle stroke-width="2.16" id="connector1pin" cx="60.205" r="1.98" fill="white" stroke="white" cy="14.3646" gorn="0.4.0.0"/>
          <circle stroke-width="2.16" id="connector5pin" cx="60.205" r="1.98" fill="white" stroke="white" cy="21.5646" gorn="0.4.0.1"/>
          <circle stroke-width="2.16" id="connector4pin" cx="60.205" r="1.98" fill="white" stroke="white" cy="28.7646" gorn="0.4.0.2"/>
          <circle stroke-width="2.16" id="connector0pin" cx="60.205" r="1.98" fill="white" stroke="white" cy="35.9646" gorn="0.4.0.3"/>
          <circle stroke-width="2.16" id="connector7pin" cx="60.205" r="1.98" fill="white" stroke="white" cy="43.1646" gorn="0.4.0.4"/>
          <circle stroke-width="2.16" id="connector3pin" cx="60.205" r="1.98" fill="white" stroke="white" cy="7.16457" gorn="0.4.0.5"/>
         </g>
        </g>
        <g gorn="0.4.0">
         <circle stroke-width="2.16" id="connector1pin" cx="60.205" r="1.98" fill="white" stroke="white" cy="14.3646" gorn="0.4.0.0"/>
         <circle stroke-width="2.16" id="connector5pin" cx="60.205" r="1.98" fill="white" stroke="white" cy="21.5646" gorn="0.4.0.1"/>
         <circle stroke-width="2.16" id="connector4pin" cx="60.205" r="1.98" fill="white" stroke="white" cy="28.7646" gorn="0.4.0.2"/>
         <circle stroke-width="2.16" id="connector0pin" cx="60.205" r="1.98" fill="white" stroke="white" cy="35.9646" gorn="0.4.0.3"/>
         <circle stroke-width="2.16" id="connector7pin" cx="60.205" r="1.98" fill="white" stroke="white" cy="43.1646" gorn="0.4.0.4"/>
         <circle stroke-width="2.16" id="connector3pin" cx="60.205" r="1.98" fill="white" stroke="white" cy="7.16457" gorn="0.4.0.5"/>
        </g>
       </g>
      </g>
     </g>
    </g>
   </g>
  </g>
 </g>
 <g partID="334330">
  <g transform="translate(180.212,5.43653)">
   <g id="copper0" gorn="0.4.0">
    <rect stroke-width="2.15999" x="26.0559" width="4.17499" id="square" y="4.30299" height="4.17199" fill="white" stroke="white" gorn="0.4.0.0"/>
    <circle stroke-width="2.15999" id="connector8pin" r="2.08899" cx="49.7478" fill="white" stroke="white" cy="6.38898" gorn="0.4.0.1"/>
    <circle stroke-width="2.15999" id="connector7pin" r="2.08799" cx="42.5478" fill="white" stroke="white" cy="6.38998" gorn="0.4.0.2"/>
    <circle stroke-width="2.15999" id="connector5pin" r="2.08799" cx="35.3459" fill="white" stroke="white" cy="6.38998" gorn="0.4.0.3"/>
    <circle stroke-width="2.15999" id="connector4pin" r="2.08799" cx="28.1429" fill="white" stroke="white" cy="6.38998" gorn="0.4.0.4"/>
   </g>
  </g>
 </g>
 <g partID="341100">
  <g transform="translate(93.3028,5.4311)">
   <g id="copper0" gorn="0.4.0">
    <rect stroke-width="2.15999" x="26.0559" width="4.17499" id="square" y="4.30299" height="4.17199" fill="white" stroke="white" gorn="0.4.0.0"/>
    <circle stroke-width="2.15999" id="connector8pin" r="2.08899" cx="49.7478" fill="white" stroke="white" cy="6.38898" gorn="0.4.0.1"/>
    <circle stroke-width="2.15999" id="connector7pin" r="2.08799" cx="42.5478" fill="white" stroke="white" cy="6.38998" gorn="0.4.0.2"/>
    <circle stroke-width="2.15999" id="connector5pin" r="2.08799" cx="35.3459" fill="white" stroke="white" cy="6.38998" gorn="0.4.0.3"/>
    <circle stroke-width="2.15999" id="connector4pin" r="2.08799" cx="28.1429" fill="white" stroke="white" cy="6.38998" gorn="0.4.0.4"/>
   </g>
  </g>
 </g>
 <g partID="341130">
  <g transform="translate(7.01456,5.35398)">
   <g id="copper0" gorn="0.4.0">
    <rect stroke-width="2.15999" x="26.0559" width="4.17499" id="square" y="4.30299" height="4.17199" fill="white" stroke="white" gorn="0.4.0.0"/>
    <circle stroke-width="2.15999" id="connector8pin" r="2.08899" cx="49.7478" fill="white" stroke="white" cy="6.38898" gorn="0.4.0.1"/>
    <circle stroke-width="2.15999" id="connector7pin" r="2.08799" cx="42.5478" fill="white" stroke="white" cy="6.38998" gorn="0.4.0.2"/>
    <circle stroke-width="2.15999" id="connector5pin" r="2.08799" cx="35.3459" fill="white" stroke="white" cy="6.38998" gorn="0.4.0.3"/>
    <circle stroke-width="2.15999" id="connector4pin" r="2.08799" cx="28.1429" fill="white" stroke="white" cy="6.38998" gorn="0.4.0.4"/>
   </g>
  </g>
 </g>
 <g partID="341160">
  <g transform="translate(7.01456,91.9523)">
   <g id="copper0" gorn="0.4.0">
    <rect stroke-width="2.15999" x="26.0559" width="4.17499" id="square" y="4.30299" height="4.17199" fill="white" stroke="white" gorn="0.4.0.0"/>
    <circle stroke-width="2.15999" id="connector8pin" r="2.08899" cx="49.7478" fill="white" stroke="white" cy="6.38898" gorn="0.4.0.1"/>
    <circle stroke-width="2.15999" id="connector7pin" r="2.08799" cx="42.5478" fill="white" stroke="white" cy="6.38998" gorn="0.4.0.2"/>
    <circle stroke-width="2.15999" id="connector5pin" r="2.08799" cx="35.3459" fill="white" stroke="white" cy="6.38998" gorn="0.4.0.3"/>
    <circle stroke-width="2.15999" id="connector4pin" r="2.08799" cx="28.1429" fill="white" stroke="white" cy="6.38998" gorn="0.4.0.4"/>
   </g>
  </g>
 </g>
 <g partID="341190">
  <g transform="translate(93.3028,92.0294)">
   <g id="copper0" gorn="0.4.0">
    <rect stroke-width="2.15999" x="26.0559" width="4.17499" id="square" y="4.30299" height="4.17199" fill="white" stroke="white" gorn="0.4.0.0"/>
    <circle stroke-width="2.15999" id="connector8pin" r="2.08899" cx="49.7478" fill="white" stroke="white" cy="6.38898" gorn="0.4.0.1"/>
    <circle stroke-width="2.15999" id="connector7pin" r="2.08799" cx="42.5478" fill="white" stroke="white" cy="6.38998" gorn="0.4.0.2"/>
    <circle stroke-width="2.15999" id="connector5pin" r="2.08799" cx="35.3459" fill="white" stroke="white" cy="6.38998" gorn="0.4.0.3"/>
    <circle stroke-width="2.15999" id="connector4pin" r="2.08799" cx="28.1429" fill="white" stroke="white" cy="6.38998" gorn="0.4.0.4"/>
   </g>
  </g>
 </g>
 <g partID="341220">
  <g transform="translate(180.212,92.0349)">
   <g id="copper0" gorn="0.4.0">
    <rect stroke-width="2.15999" x="26.0559" width="4.17499" id="square" y="4.30299" height="4.17199" fill="white" stroke="white" gorn="0.4.0.0"/>
    <circle stroke-width="2.15999" id="connector8pin" r="2.08899" cx="49.7478" fill="white" stroke="white" cy="6.38898" gorn="0.4.0.1"/>
    <circle stroke-width="2.15999" id="connector7pin" r="2.08799" cx="42.5478" fill="white" stroke="white" cy="6.38998" gorn="0.4.0.2"/>
    <circle stroke-width="2.15999" id="connector5pin" r="2.08799" cx="35.3459" fill="white" stroke="white" cy="6.38998" gorn="0.4.0.3"/>
    <circle stroke-width="2.15999" id="connector4pin" r="2.08799" cx="28.1429" fill="white" stroke="white" cy="6.38998" gorn="0.4.0.4"/>
   </g>
  </g>
 </g>
 <g partID="308840">
  <g transform="translate(174.172,25.3819)">
   <g transform="matrix(0,1,-1,0,0,0)">
    <g id="copper0" flipped="1">
     <g transform="matrix(-1, 0, 0, 1, 29.232, 0)">
      <g>
       <g>
        <g>
         <rect stroke-width="0.72" x="1.16561" id="connector0pad" width="1.70079" y="15.874" height="3.40158" stroke-linecap="round" fill="white" stroke="white" connectorname="1"/>
         <rect stroke-width="0.72" x="4.76561" id="connector1pad" width="1.70079" y="15.874" height="3.40158" stroke-linecap="round" fill="white" stroke="white" connectorname="2"/>
         <rect stroke-width="0.72" x="8.36561" id="connector2pad" width="1.70079" y="15.874" height="3.40158" stroke-linecap="round" fill="white" stroke="white" connectorname="3"/>
         <rect stroke-width="0.72" x="11.9656" id="connector3pad" width="1.70079" y="15.874" height="3.40158" stroke-linecap="round" fill="white" stroke="white" connectorname="4"/>
         <rect stroke-width="0.72" x="15.5656" id="connector4pad" width="1.70079" y="15.874" height="3.40158" stroke-linecap="round" fill="white" stroke="white" connectorname="5"/>
         <rect stroke-width="0.72" x="19.1656" id="connector5pad" width="1.70079" y="15.874" height="3.40158" stroke-linecap="round" fill="white" stroke="white" connectorname="6"/>
         <rect stroke-width="0.72" x="22.7656" id="connector6pad" width="1.70079" y="15.874" height="3.40158" stroke-linecap="round" fill="white" stroke="white" connectorname="7"/>
         <rect stroke-width="0.72" x="26.3656" id="connector7pad" width="1.70079" y="15.874" height="3.40158" stroke-linecap="round" fill="white" stroke="white" connectorname="8"/>
         <rect stroke-width="0.72" x="26.3656" id="connector8pad" width="1.70079" y="0" height="3.40158" stroke-linecap="round" fill="white" stroke="white" connectorname="9"/>
         <rect stroke-width="0.72" x="22.7656" id="connector9pad" width="1.70079" y="0" height="3.40158" stroke-linecap="round" fill="white" stroke="white" connectorname="10"/>
         <rect stroke-width="0.72" x="19.1656" id="connector10pad" width="1.70079" y="0" height="3.40158" stroke-linecap="round" fill="white" stroke="white" connectorname="11"/>
         <rect stroke-width="0.72" x="15.5656" id="connector11pad" width="1.70079" y="0" height="3.40158" stroke-linecap="round" fill="white" stroke="white" connectorname="12"/>
         <rect stroke-width="0.72" x="11.9656" id="connector12pad" width="1.70079" y="0" height="3.40158" stroke-linecap="round" fill="white" stroke="white" connectorname="13"/>
         <rect stroke-width="0.72" x="8.36561" id="connector13pad" width="1.70079" y="0" height="3.40158" stroke-linecap="round" fill="white" stroke="white" connectorname="14"/>
         <rect stroke-width="0.72" x="4.76561" id="connector14pad" width="1.70079" y="0" height="3.40158" stroke-linecap="round" fill="white" stroke="white" connectorname="15"/>
         <rect stroke-width="0.72" x="1.16561" id="connector15pad" width="1.70079" y="0" height="3.40158" stroke-linecap="round" fill="white" stroke="white" connectorname="16"/>
         <g id="copper0"/>
        </g>
        <g/>
       </g>
      </g>
     </g>
    </g>
   </g>
  </g>
 </g>
 <g partID="309360">
  <g transform="translate(174.172,114.163)">
   <g transform="matrix(0,1,-1,0,0,0)">
    <g id="copper0" flipped="1">
     <g transform="matrix(-1, 0, 0, 1, 29.232, 0)">
      <g>
       <g>
        <g>
         <rect stroke-width="0.72" x="1.16561" id="connector0pad" width="1.70079" y="15.874" height="3.40158" stroke-linecap="round" fill="white" stroke="white" connectorname="1"/>
         <rect stroke-width="0.72" x="4.76561" id="connector1pad" width="1.70079" y="15.874" height="3.40158" stroke-linecap="round" fill="white" stroke="white" connectorname="2"/>
         <rect stroke-width="0.72" x="8.36561" id="connector2pad" width="1.70079" y="15.874" height="3.40158" stroke-linecap="round" fill="white" stroke="white" connectorname="3"/>
         <rect stroke-width="0.72" x="11.9656" id="connector3pad" width="1.70079" y="15.874" height="3.40158" stroke-linecap="round" fill="white" stroke="white" connectorname="4"/>
         <rect stroke-width="0.72" x="15.5656" id="connector4pad" width="1.70079" y="15.874" height="3.40158" stroke-linecap="round" fill="white" stroke="white" connectorname="5"/>
         <rect stroke-width="0.72" x="19.1656" id="connector5pad" width="1.70079" y="15.874" height="3.40158" stroke-linecap="round" fill="white" stroke="white" connectorname="6"/>
         <rect stroke-width="0.72" x="22.7656" id="connector6pad" width="1.70079" y="15.874" height="3.40158" stroke-linecap="round" fill="white" stroke="white" connectorname="7"/>
         <rect stroke-width="0.72" x="26.3656" id="connector7pad" width="1.70079" y="15.874" height="3.40158" stroke-linecap="round" fill="white" stroke="white" connectorname="8"/>
         <rect stroke-width="0.72" x="26.3656" id="connector8pad" width="1.70079" y="0" height="3.40158" stroke-linecap="round" fill="white" stroke="white" connectorname="9"/>
         <rect stroke-width="0.72" x="22.7656" id="connector9pad" width="1.70079" y="0" height="3.40158" stroke-linecap="round" fill="white" stroke="white" connectorname="10"/>
         <rect stroke-width="0.72" x="19.1656" id="connector10pad" width="1.70079" y="0" height="3.40158" stroke-linecap="round" fill="white" stroke="white" connectorname="11"/>
         <rect stroke-width="0.72" x="15.5656" id="connector11pad" width="1.70079" y="0" height="3.40158" stroke-linecap="round" fill="white" stroke="white" connectorname="12"/>
         <rect stroke-width="0.72" x="11.9656" id="connector12pad" width="1.70079" y="0" height="3.40158" stroke-linecap="round" fill="white" stroke="white" connectorname="13"/>
         <rect stroke-width="0.72" x="8.36561" id="connector13pad" width="1.70079" y="0" height="3.40158" stroke-linecap="round" fill="white" stroke="white" connectorname="14"/>
         <rect stroke-width="0.72" x="4.76561" id="connector14pad" width="1.70079" y="0" height="3.40158" stroke-linecap="round" fill="white" stroke="white" connectorname="15"/>
         <rect stroke-width="0.72" x="1.16561" id="connector15pad" width="1.70079" y="0" height="3.40158" stroke-linecap="round" fill="white" stroke="white" connectorname="16"/>
         <g id="copper0"/>
        </g>
        <g/>
       </g>
      </g>
     </g>
    </g>
   </g>
  </g>
 </g>
 <g partID="185880">
  <g transform="translate(267.533,76.4259)">
   <g id="copper0" gorn="0.1.0">
    <rect stroke-width="2.16" x="2.34" id="square" width="3.96" y="9.54" height="3.96" fill="white" stroke="white" gorn="0.1.0.0"/>
    <circle stroke-width="2.16" id="connector0pin" r="1.98" cx="4.32" fill="white" stroke="white" cy="11.52" gorn="0.1.0.1"/>
    <circle stroke-width="2.16" id="connector23pin" r="1.98" cx="47.52" fill="white" stroke="white" cy="11.52" gorn="0.1.0.2"/>
    <circle stroke-width="2.16" id="connector1pin" r="1.98" cx="4.32" fill="white" stroke="white" cy="18.72" gorn="0.1.0.3"/>
    <circle stroke-width="2.16" id="connector22pin" r="1.98" cx="47.52" fill="white" stroke="white" cy="18.72" gorn="0.1.0.4"/>
    <circle stroke-width="2.16" id="connector2pin" r="1.98" cx="4.32" fill="white" stroke="white" cy="25.92" gorn="0.1.0.5"/>
    <circle stroke-width="2.16" id="connector21pin" r="1.98" cx="47.52" fill="white" stroke="white" cy="25.92" gorn="0.1.0.6"/>
    <circle stroke-width="2.16" id="connector3pin" r="1.98" cx="4.32" fill="white" stroke="white" cy="33.12" gorn="0.1.0.7"/>
    <circle stroke-width="2.16" id="connector20pin" r="1.98" cx="47.52" fill="white" stroke="white" cy="33.12" gorn="0.1.0.8"/>
    <circle stroke-width="2.16" id="connector4pin" r="1.98" cx="4.32" fill="white" stroke="white" cy="40.32" gorn="0.1.0.9"/>
    <circle stroke-width="2.16" id="connector19pin" r="1.98" cx="47.52" fill="white" stroke="white" cy="40.32" gorn="0.1.0.10"/>
    <circle stroke-width="2.16" id="connector5pin" r="1.98" cx="4.32" fill="white" stroke="white" cy="47.52" gorn="0.1.0.11"/>
    <circle stroke-width="2.16" id="connector18pin" r="1.98" cx="47.52" fill="white" stroke="white" cy="47.52" gorn="0.1.0.12"/>
    <circle stroke-width="2.16" id="connector6pin" r="1.98" cx="4.32" fill="white" stroke="white" cy="54.72" gorn="0.1.0.13"/>
    <circle stroke-width="2.16" id="connector17pin" r="1.98" cx="47.52" fill="white" stroke="white" cy="54.72" gorn="0.1.0.14"/>
    <circle stroke-width="2.16" id="connector7pin" r="1.98" cx="4.32" fill="white" stroke="white" cy="61.92" gorn="0.1.0.15"/>
    <circle stroke-width="2.16" id="connector16pin" r="1.98" cx="47.52" fill="white" stroke="white" cy="61.92" gorn="0.1.0.16"/>
    <circle stroke-width="2.16" id="connector8pin" r="1.98" cx="4.32" fill="white" stroke="white" cy="69.12" gorn="0.1.0.17"/>
    <circle stroke-width="2.16" id="connector15pin" r="1.98" cx="47.52" fill="white" stroke="white" cy="69.12" gorn="0.1.0.18"/>
    <circle stroke-width="2.16" id="connector9pin" r="1.98" cx="4.32" fill="white" stroke="white" cy="76.32" gorn="0.1.0.19"/>
    <circle stroke-width="2.16" id="connector14pin" r="1.98" cx="47.52" fill="white" stroke="white" cy="76.32" gorn="0.1.0.20"/>
    <circle stroke-width="2.16" id="connector10pin" r="1.98" cx="4.32" fill="white" stroke="white" cy="83.52" gorn="0.1.0.21"/>
    <circle stroke-width="2.16" id="connector13pin" r="1.98" cx="47.52" fill="white" stroke="white" cy="83.52" gorn="0.1.0.22"/>
    <circle stroke-width="2.16" id="connector11pin" r="1.98" cx="4.32" fill="white" stroke="white" cy="90.72" gorn="0.1.0.23"/>
    <circle stroke-width="2.16" id="connector12pin" r="1.98" cx="47.52" fill="white" stroke="white" cy="90.72" gorn="0.1.0.24"/>
   </g>
  </g>
 </g>
 <g partID="404670">
  <g transform="translate(139.111,139.975)">
   <g id="copper0">
    <circle stroke-width="1.57039" id="connector0pin" cx="3.01732" r="0.992124" fill="white" stroke="white" cy="3.01732"/>
   </g>
  </g>
 </g>
 <g partID="405390">
  <g transform="translate(174.535,140.839)">
   <g id="copper0">
    <circle stroke-width="1.57039" id="connector0pin" cx="3.01732" r="0.992124" fill="white" stroke="white" cy="3.01732"/>
   </g>
  </g>
 </g>
 <g partID="405570">
  <g transform="translate(174.535,129.607)">
   <g id="copper0">
    <circle stroke-width="1.57039" id="connector0pin" cx="3.01732" r="0.992124" fill="white" stroke="white" cy="3.01732"/>
   </g>
  </g>
 </g>
 <g partID="405970">
  <g transform="translate(174.535,125.287)">
   <g id="copper0">
    <circle stroke-width="1.57039" id="connector0pin" cx="3.01732" r="0.992124" fill="white" stroke="white" cy="3.01732"/>
   </g>
  </g>
 </g>
 <g partID="406590">
  <g transform="translate(174.535,135.655)">
   <g id="copper0">
    <circle stroke-width="1.57039" id="connector0pin" cx="3.01732" r="0.992124" fill="white" stroke="white" cy="3.01732"/>
   </g>
  </g>
 </g>
 <g partID="407190">
  <g transform="translate(182.311,133.063)">
   <g id="copper0">
    <circle stroke-width="1.57039" id="connector0pin" cx="3.01732" r="0.992124" fill="white" stroke="white" cy="3.01732"/>
   </g>
  </g>
 </g>
 <g partID="407390">
  <g transform="translate(174.535,37.1587)">
   <g id="copper0">
    <circle stroke-width="1.57039" id="connector0pin" cx="3.01732" r="0.992124" fill="white" stroke="white" cy="3.01732"/>
   </g>
  </g>
 </g>
 <g partID="407650">
  <g transform="translate(174.535,32.8387)">
   <g id="copper0">
    <circle stroke-width="1.57039" id="connector0pin" cx="3.01732" r="0.992124" fill="white" stroke="white" cy="3.01732"/>
   </g>
  </g>
 </g>
 <g partID="407890">
  <g transform="translate(121.831,51.8467)">
   <g id="copper0">
    <circle stroke-width="1.57039" id="connector0pin" cx="3.01732" r="0.992124" fill="white" stroke="white" cy="3.01732"/>
   </g>
  </g>
 </g>
 <g partID="408110">
  <g transform="translate(116.647,87.2707)">
   <g id="copper0">
    <circle stroke-width="1.57039" id="connector0pin" cx="3.01732" r="0.992124" fill="white" stroke="white" cy="3.01732"/>
   </g>
  </g>
 </g>
 <g partID="408290">
  <g transform="translate(174.535,43.2067)">
   <g id="copper0">
    <circle stroke-width="1.57039" id="connector0pin" cx="3.01732" r="0.992124" fill="white" stroke="white" cy="3.01732"/>
   </g>
  </g>
 </g>
 <g partID="409230">
  <g transform="translate(171.079,53.5747)">
   <g id="copper0">
    <circle stroke-width="1.57039" id="connector0pin" cx="3.01732" r="0.992124" fill="white" stroke="white" cy="3.01732"/>
   </g>
  </g>
 </g>
 <g partID="409770">
  <g transform="translate(173.671,57.8947)">
   <g id="copper0">
    <circle stroke-width="1.57039" id="connector0pin" cx="3.01732" r="0.992124" fill="white" stroke="white" cy="3.01732"/>
   </g>
  </g>
 </g>
 <g partID="410170">
  <g transform="translate(176.263,118.375)">
   <g id="copper0">
    <circle stroke-width="1.57039" id="connector0pin" cx="3.01732" r="0.992124" fill="white" stroke="white" cy="3.01732"/>
   </g>
  </g>
 </g>
 <g partID="410230">
  <g transform="translate(169.351,60.4867)">
   <g id="copper0">
    <circle stroke-width="1.57039" id="connector0pin" cx="3.01732" r="0.992124" fill="white" stroke="white" cy="3.01732"/>
   </g>
  </g>
 </g>
 <g partID="410690">
  <g transform="translate(188.359,138.247)">
   <g id="copper0">
    <circle stroke-width="1.57039" id="connector0pin" cx="3.01732" r="0.992124" fill="white" stroke="white" cy="3.01732"/>
   </g>
  </g>
 </g>
 <g partID="411110">
  <g transform="translate(39.7507,141.703)">
   <g id="copper0">
    <circle stroke-width="1.57039" id="connector0pin" cx="3.01732" r="0.992124" fill="white" stroke="white" cy="3.01732"/>
   </g>
  </g>
 </g>
 <g partID="411430">
  <g transform="translate(180.583,55.3027)">
   <g id="copper0">
    <circle stroke-width="1.57039" id="connector0pin" cx="3.01732" r="0.992124" fill="white" stroke="white" cy="3.01732"/>
   </g>
  </g>
 </g>
 <g partID="411530">
  <g transform="translate(173.671,62.2147)">
   <g id="copper0">
    <circle stroke-width="1.57039" id="connector0pin" cx="3.01732" r="0.992124" fill="white" stroke="white" cy="3.01732"/>
   </g>
  </g>
 </g>
 <g partID="411890">
  <g transform="translate(160.711,144.295)">
   <g id="copper0">
    <circle stroke-width="1.57039" id="connector0pin" cx="3.01732" r="0.992124" fill="white" stroke="white" cy="3.01732"/>
   </g>
  </g>
 </g>
 <g partID="412270">
  <g transform="translate(178.855,114.055)">
   <g id="copper0">
    <circle stroke-width="1.57039" id="connector0pin" cx="3.01732" r="0.992124" fill="white" stroke="white" cy="3.01732"/>
   </g>
  </g>
 </g>
 <g partID="412370">
  <g transform="translate(172.807,107.143)">
   <g id="copper0">
    <circle stroke-width="1.57039" id="connector0pin" cx="3.01732" r="0.992124" fill="white" stroke="white" cy="3.01732"/>
   </g>
  </g>
 </g>
 <g partID="412810">
  <g transform="translate(184.903,55.3027)">
   <g id="copper0">
    <circle stroke-width="1.57039" id="connector0pin" cx="3.01732" r="0.992124" fill="white" stroke="white" cy="3.01732"/>
   </g>
  </g>
 </g>
 <g partID="414970">
  <g transform="translate(148.615,41.4787)">
   <g id="copper0">
    <circle stroke-width="1.57039" id="connector0pin" cx="3.01732" r="0.992124" fill="white" stroke="white" cy="3.01732"/>
   </g>
  </g>
 </g>
 <g partID="415250">
  <g transform="translate(144.295,77.7667)">
   <g id="copper0">
    <circle stroke-width="1.57039" id="connector0pin" cx="3.01732" r="0.992124" fill="white" stroke="white" cy="3.01732"/>
   </g>
  </g>
 </g>
 <g partID="415390">
  <g transform="translate(144.295,117.511)">
   <g id="copper0">
    <circle stroke-width="1.57039" id="connector0pin" cx="3.01732" r="0.992124" fill="white" stroke="white" cy="3.01732"/>
   </g>
  </g>
 </g>
 <g partID="415650">
  <g transform="translate(139.111,104.551)">
   <g id="copper0">
    <circle stroke-width="1.57039" id="connector0pin" cx="3.01732" r="0.992124" fill="white" stroke="white" cy="3.01732"/>
   </g>
  </g>
 </g>
 <g partID="416050">
  <g transform="translate(200.455,10.3747)">
   <g id="copper0">
    <circle stroke-width="1.57039" id="connector0pin" cx="3.01732" r="0.992124" fill="white" stroke="white" cy="3.01732"/>
   </g>
  </g>
 </g>
 <g partID="416290">
  <g transform="translate(228.967,55.3027)">
   <g id="copper0">
    <circle stroke-width="1.57039" id="connector0pin" cx="3.01732" r="0.992124" fill="white" stroke="white" cy="3.01732"/>
   </g>
  </g>
 </g>
 <g partID="417370">
  <g transform="translate(218.599,142.567)">
   <g id="copper0">
    <circle stroke-width="1.57039" id="connector0pin" cx="3.01732" r="0.992124" fill="white" stroke="white" cy="3.01732"/>
   </g>
  </g>
 </g>
 <g partID="417430">
  <g transform="translate(222.055,117.511)">
   <g id="copper0">
    <circle stroke-width="1.57039" id="connector0pin" cx="3.01732" r="0.992124" fill="white" stroke="white" cy="3.01732"/>
   </g>
  </g>
 </g>
 <g partID="417530">
  <g transform="translate(51.8467,57.8947)">
   <g id="copper0">
    <circle stroke-width="1.57039" id="connector0pin" cx="3.01732" r="0.992124" fill="white" stroke="white" cy="3.01732"/>
   </g>
  </g>
 </g>
 <g partID="417930">
  <g transform="translate(235.015,93.3187)">
   <g id="copper0">
    <circle stroke-width="1.57039" id="connector0pin" cx="3.01732" r="0.992124" fill="white" stroke="white" cy="3.01732"/>
   </g>
  </g>
 </g>
 <g partID="418450">
  <g transform="translate(176.263,19.8787)">
   <g id="copper0">
    <circle stroke-width="1.57039" id="connector0pin" cx="3.01732" r="0.992124" fill="white" stroke="white" cy="3.01732"/>
   </g>
  </g>
 </g>
 <g partID="418510">
  <g transform="translate(156.391,15.5587)">
   <g id="copper0">
    <circle stroke-width="1.57039" id="connector0pin" cx="3.01732" r="0.992124" fill="white" stroke="white" cy="3.01732"/>
   </g>
  </g>
 </g>
 <g partID="418590">
  <g transform="translate(142.567,19.0147)">
   <g id="copper0">
    <circle stroke-width="1.57039" id="connector0pin" cx="3.01732" r="0.992124" fill="white" stroke="white" cy="3.01732"/>
   </g>
  </g>
 </g>
 <g partID="418630">
  <g transform="translate(142.567,25.9267)">
   <g id="copper0">
    <circle stroke-width="1.57039" id="connector0pin" cx="3.01732" r="0.992124" fill="white" stroke="white" cy="3.01732"/>
   </g>
  </g>
 </g>
 <g partID="419450">
  <g transform="translate(304.135,128.743)">
   <g id="copper0">
    <circle stroke-width="1.57039" id="connector0pin" cx="3.01732" r="0.992124" fill="white" stroke="white" cy="3.01732"/>
   </g>
  </g>
 </g>
</svg>
